<svg width="1038" height="558" viewBox="0 0 938 558" fill="none" xmlns="http://www.w3.org/2000/svg">
<path d="M350.158 411.998C358.296 411.998 366.19 411.347 373.84 410.045C381.652 408.743 389.058 406.79 396.057 404.186L404.846 461.314C395.243 463.593 385.152 465.383 374.572 466.686C363.993 467.988 353.251 468.639 342.346 468.639C321.838 468.639 302.958 465.79 285.705 460.094C268.452 454.397 253.479 445.852 240.783 434.459C228.251 422.903 218.485 408.661 211.486 391.734C204.488 374.645 200.988 354.706 200.988 331.92V247.691C200.988 223.928 204.488 203.095 211.486 185.191C218.648 167.288 228.739 152.314 241.76 140.27C254.781 128.225 270.243 119.192 288.146 113.17C306.05 106.985 325.907 103.893 347.717 103.893C357.32 103.893 366.841 104.625 376.281 106.09C385.884 107.392 395.406 109.182 404.846 111.461L396.057 168.834C389.709 166.393 382.548 164.439 374.572 162.975C366.76 161.51 359.029 160.777 351.379 160.777C339.335 160.777 328.511 162.486 318.908 165.904C309.305 169.16 301.167 174.286 294.494 181.285C287.984 188.121 283.02 196.992 279.602 207.896C276.184 218.801 274.475 231.904 274.475 247.203V331.92C274.475 346.894 276.265 359.589 279.846 370.006C283.426 380.26 288.553 388.479 295.227 394.664C301.9 400.686 309.875 405.081 319.152 407.848C328.43 410.615 338.765 411.998 350.158 411.998ZM356.018 234.02V270.152H159.729V234.02H356.018ZM356.018 301.158V337.291H159.729V301.158H356.018Z" fill="url(#paint0_linear_3_37)"/>
<path d="M42.4737 226.993H64.8046L97.6854 320.976L130.566 226.993H152.897L106.653 355H88.7179L42.4737 226.993ZM30.4292 226.993H52.6721L56.7162 318.603V355H30.4292V226.993ZM142.699 226.993H165.03V355H138.655V318.603L142.699 226.993ZM200.196 226.993H222.527L255.408 320.976L288.289 226.993H310.62L264.375 355H246.44L200.196 226.993ZM188.152 226.993H210.395L214.439 318.603V355H188.152V226.993ZM300.421 226.993H322.752V355H296.377V318.603L300.421 226.993ZM372.249 226.993V355H345.874V226.993H372.249ZM423.241 281.678V302.25H365.04V281.678H423.241ZM429.395 226.993V247.654H365.04V226.993H429.395ZM476.606 315.701V226.993H502.893V315.701C502.893 324.258 501.018 331.614 497.267 337.768C493.516 343.864 488.387 348.553 481.881 351.835C475.434 355.117 468.166 356.758 460.078 356.758C451.697 356.758 444.282 355.352 437.835 352.538C431.388 349.725 426.318 345.417 422.625 339.615C418.933 333.753 417.087 326.339 417.087 317.372H443.55C443.55 322.061 444.194 325.782 445.484 328.537C446.832 331.292 448.737 333.255 451.198 334.428C453.66 335.6 456.62 336.186 460.078 336.186C463.419 336.186 466.32 335.395 468.782 333.812C471.243 332.23 473.148 329.914 474.496 326.867C475.903 323.819 476.606 320.097 476.606 315.701Z" fill="url(#paint1_linear_3_37)"/>
<path d="M5.21484 393.562H10.1758L17.4805 414.441L24.7852 393.562H29.7461L19.4727 422H15.4883L5.21484 393.562ZM2.53906 393.562H7.48047L8.37891 413.914V422H2.53906V393.562ZM27.4805 393.562H32.4414V422H26.582V413.914L27.4805 393.562ZM48.6328 417.234V407.82C48.6328 407.143 48.5221 406.564 48.3008 406.082C48.0794 405.587 47.7344 405.203 47.2656 404.93C46.8099 404.656 46.2174 404.52 45.4883 404.52C44.8633 404.52 44.3229 404.63 43.8672 404.852C43.4115 405.06 43.0599 405.366 42.8125 405.77C42.5651 406.16 42.4414 406.622 42.4414 407.156H36.8164C36.8164 406.258 37.0247 405.405 37.4414 404.598C37.8581 403.79 38.4635 403.081 39.2578 402.469C40.0521 401.844 40.9961 401.355 42.0898 401.004C43.1966 400.652 44.4336 400.477 45.8008 400.477C47.4414 400.477 48.8997 400.75 50.1758 401.297C51.4518 401.844 52.4544 402.664 53.1836 403.758C53.9258 404.852 54.2969 406.219 54.2969 407.859V416.902C54.2969 418.061 54.3685 419.012 54.5117 419.754C54.6549 420.483 54.8633 421.121 55.1367 421.668V422H49.4531C49.1797 421.427 48.9714 420.711 48.8281 419.852C48.6979 418.979 48.6328 418.107 48.6328 417.234ZM49.375 409.129L49.4141 412.312H46.2695C45.5273 412.312 44.8828 412.397 44.3359 412.566C43.7891 412.736 43.3398 412.977 42.9883 413.289C42.6367 413.589 42.3763 413.94 42.207 414.344C42.0508 414.747 41.9727 415.19 41.9727 415.672C41.9727 416.154 42.0833 416.59 42.3047 416.98C42.526 417.358 42.8451 417.658 43.2617 417.879C43.6784 418.087 44.1667 418.191 44.7266 418.191C45.5729 418.191 46.3086 418.022 46.9336 417.684C47.5586 417.345 48.0404 416.928 48.3789 416.434C48.7305 415.939 48.9128 415.47 48.9258 415.027L50.4102 417.41C50.2018 417.944 49.9154 418.497 49.5508 419.07C49.1992 419.643 48.75 420.184 48.2031 420.691C47.6562 421.186 46.9987 421.596 46.2305 421.922C45.4622 422.234 44.5508 422.391 43.4961 422.391C42.1549 422.391 40.9375 422.124 39.8438 421.59C38.763 421.043 37.9036 420.294 37.2656 419.344C36.6406 418.38 36.3281 417.286 36.3281 416.062C36.3281 414.956 36.5365 413.973 36.9531 413.113C37.3698 412.254 37.9818 411.531 38.7891 410.945C39.6094 410.346 40.6315 409.897 41.8555 409.598C43.0794 409.285 44.4987 409.129 46.1133 409.129H49.375ZM71.6211 393.562H76.582L83.8867 414.441L91.1914 393.562H96.1523L85.8789 422H81.8945L71.6211 393.562ZM68.9453 393.562H73.8867L74.7852 413.914V422H68.9453V393.562ZM93.8867 393.562H98.8477V422H92.9883V413.914L93.8867 393.562ZM113.359 422.391C111.719 422.391 110.247 422.13 108.945 421.609C107.643 421.076 106.536 420.34 105.625 419.402C104.727 418.465 104.036 417.378 103.555 416.141C103.073 414.891 102.832 413.562 102.832 412.156V411.375C102.832 409.773 103.06 408.309 103.516 406.98C103.971 405.652 104.622 404.5 105.469 403.523C106.328 402.547 107.37 401.798 108.594 401.277C109.818 400.743 111.198 400.477 112.734 400.477C114.232 400.477 115.56 400.724 116.719 401.219C117.878 401.714 118.848 402.417 119.629 403.328C120.423 404.24 121.022 405.333 121.426 406.609C121.829 407.872 122.031 409.279 122.031 410.828V413.172H105.234V409.422H116.504V408.992C116.504 408.211 116.361 407.514 116.074 406.902C115.801 406.277 115.384 405.783 114.824 405.418C114.264 405.053 113.548 404.871 112.676 404.871C111.934 404.871 111.296 405.034 110.762 405.359C110.228 405.685 109.792 406.141 109.453 406.727C109.128 407.312 108.88 408.003 108.711 408.797C108.555 409.578 108.477 410.438 108.477 411.375V412.156C108.477 413.003 108.594 413.784 108.828 414.5C109.076 415.216 109.421 415.835 109.863 416.355C110.319 416.876 110.866 417.28 111.504 417.566C112.155 417.853 112.891 417.996 113.711 417.996C114.727 417.996 115.671 417.801 116.543 417.41C117.428 417.007 118.19 416.401 118.828 415.594L121.562 418.562C121.12 419.201 120.514 419.812 119.746 420.398C118.991 420.984 118.079 421.466 117.012 421.844C115.944 422.208 114.727 422.391 113.359 422.391ZM131.172 400.867V422H125.527V400.867H131.172ZM125.176 395.359C125.176 394.539 125.462 393.862 126.035 393.328C126.608 392.794 127.376 392.527 128.34 392.527C129.29 392.527 130.052 392.794 130.625 393.328C131.211 393.862 131.504 394.539 131.504 395.359C131.504 396.18 131.211 396.857 130.625 397.391C130.052 397.924 129.29 398.191 128.34 398.191C127.376 398.191 126.608 397.924 126.035 397.391C125.462 396.857 125.176 396.18 125.176 395.359ZM141.758 392V422H136.113V392H141.758ZM152.344 392V422H146.699V392H152.344ZM166.719 422.391C165.078 422.391 163.607 422.13 162.305 421.609C161.003 421.076 159.896 420.34 158.984 419.402C158.086 418.465 157.396 417.378 156.914 416.141C156.432 414.891 156.191 413.562 156.191 412.156V411.375C156.191 409.773 156.419 408.309 156.875 406.98C157.331 405.652 157.982 404.5 158.828 403.523C159.688 402.547 160.729 401.798 161.953 401.277C163.177 400.743 164.557 400.477 166.094 400.477C167.591 400.477 168.919 400.724 170.078 401.219C171.237 401.714 172.207 402.417 172.988 403.328C173.783 404.24 174.382 405.333 174.785 406.609C175.189 407.872 175.391 409.279 175.391 410.828V413.172H158.594V409.422H169.863V408.992C169.863 408.211 169.72 407.514 169.434 406.902C169.16 406.277 168.743 405.783 168.184 405.418C167.624 405.053 166.908 404.871 166.035 404.871C165.293 404.871 164.655 405.034 164.121 405.359C163.587 405.685 163.151 406.141 162.812 406.727C162.487 407.312 162.24 408.003 162.07 408.797C161.914 409.578 161.836 410.438 161.836 411.375V412.156C161.836 413.003 161.953 413.784 162.188 414.5C162.435 415.216 162.78 415.835 163.223 416.355C163.678 416.876 164.225 417.28 164.863 417.566C165.514 417.853 166.25 417.996 167.07 417.996C168.086 417.996 169.03 417.801 169.902 417.41C170.788 417.007 171.549 416.401 172.188 415.594L174.922 418.562C174.479 419.201 173.874 419.812 173.105 420.398C172.35 420.984 171.439 421.466 170.371 421.844C169.303 422.208 168.086 422.391 166.719 422.391ZM191.094 416.941V400.867H196.719V422H191.426L191.094 416.941ZM191.719 412.605L193.379 412.566C193.379 413.973 193.216 415.281 192.891 416.492C192.565 417.69 192.077 418.732 191.426 419.617C190.775 420.49 189.954 421.173 188.965 421.668C187.975 422.15 186.81 422.391 185.469 422.391C184.44 422.391 183.49 422.247 182.617 421.961C181.758 421.661 181.016 421.199 180.391 420.574C179.779 419.936 179.297 419.122 178.945 418.133C178.607 417.13 178.438 415.926 178.438 414.52V400.867H184.062V414.559C184.062 415.184 184.134 415.711 184.277 416.141C184.434 416.57 184.648 416.922 184.922 417.195C185.195 417.469 185.514 417.664 185.879 417.781C186.257 417.898 186.673 417.957 187.129 417.957C188.288 417.957 189.199 417.723 189.863 417.254C190.54 416.785 191.016 416.147 191.289 415.34C191.576 414.52 191.719 413.608 191.719 412.605ZM206.641 405.477V422H201.016V400.867H206.309L206.641 405.477ZM213.008 400.73L212.91 405.945C212.637 405.906 212.305 405.874 211.914 405.848C211.536 405.809 211.191 405.789 210.879 405.789C210.085 405.789 209.395 405.893 208.809 406.102C208.236 406.297 207.754 406.59 207.363 406.98C206.986 407.371 206.699 407.846 206.504 408.406C206.322 408.966 206.217 409.604 206.191 410.32L205.059 409.969C205.059 408.602 205.195 407.345 205.469 406.199C205.742 405.04 206.139 404.031 206.66 403.172C207.194 402.312 207.845 401.648 208.613 401.18C209.382 400.711 210.26 400.477 211.25 400.477C211.562 400.477 211.882 400.503 212.207 400.555C212.533 400.594 212.799 400.652 213.008 400.73ZM225 422.391C223.359 422.391 221.888 422.13 220.586 421.609C219.284 421.076 218.177 420.34 217.266 419.402C216.367 418.465 215.677 417.378 215.195 416.141C214.714 414.891 214.473 413.562 214.473 412.156V411.375C214.473 409.773 214.701 408.309 215.156 406.98C215.612 405.652 216.263 404.5 217.109 403.523C217.969 402.547 219.01 401.798 220.234 401.277C221.458 400.743 222.839 400.477 224.375 400.477C225.872 400.477 227.201 400.724 228.359 401.219C229.518 401.714 230.488 402.417 231.27 403.328C232.064 404.24 232.663 405.333 233.066 406.609C233.47 407.872 233.672 409.279 233.672 410.828V413.172H216.875V409.422H228.145V408.992C228.145 408.211 228.001 407.514 227.715 406.902C227.441 406.277 227.025 405.783 226.465 405.418C225.905 405.053 225.189 404.871 224.316 404.871C223.574 404.871 222.936 405.034 222.402 405.359C221.868 405.685 221.432 406.141 221.094 406.727C220.768 407.312 220.521 408.003 220.352 408.797C220.195 409.578 220.117 410.438 220.117 411.375V412.156C220.117 413.003 220.234 413.784 220.469 414.5C220.716 415.216 221.061 415.835 221.504 416.355C221.96 416.876 222.507 417.28 223.145 417.566C223.796 417.853 224.531 417.996 225.352 417.996C226.367 417.996 227.311 417.801 228.184 417.41C229.069 417.007 229.831 416.401 230.469 415.594L233.203 418.562C232.76 419.201 232.155 419.812 231.387 420.398C230.632 420.984 229.72 421.466 228.652 421.844C227.585 422.208 226.367 422.391 225 422.391ZM253.047 393.562V422H247.188V393.562H253.047ZM264.375 405.711V410.281H251.445V405.711H264.375ZM265.742 393.562V398.152H251.445V393.562H265.742ZM267.461 411.648V411.238C267.461 409.689 267.682 408.263 268.125 406.961C268.568 405.646 269.212 404.507 270.059 403.543C270.905 402.579 271.947 401.831 273.184 401.297C274.421 400.75 275.84 400.477 277.441 400.477C279.043 400.477 280.469 400.75 281.719 401.297C282.969 401.831 284.017 402.579 284.863 403.543C285.723 404.507 286.374 405.646 286.816 406.961C287.259 408.263 287.48 409.689 287.48 411.238V411.648C287.48 413.185 287.259 414.611 286.816 415.926C286.374 417.228 285.723 418.367 284.863 419.344C284.017 420.307 282.975 421.056 281.738 421.59C280.501 422.124 279.082 422.391 277.48 422.391C275.879 422.391 274.453 422.124 273.203 421.59C271.966 421.056 270.918 420.307 270.059 419.344C269.212 418.367 268.568 417.228 268.125 415.926C267.682 414.611 267.461 413.185 267.461 411.648ZM273.086 411.238V411.648C273.086 412.534 273.164 413.361 273.32 414.129C273.477 414.897 273.724 415.574 274.062 416.16C274.414 416.733 274.87 417.182 275.43 417.508C275.99 417.833 276.673 417.996 277.48 417.996C278.262 417.996 278.932 417.833 279.492 417.508C280.052 417.182 280.501 416.733 280.84 416.16C281.178 415.574 281.426 414.897 281.582 414.129C281.751 413.361 281.836 412.534 281.836 411.648V411.238C281.836 410.379 281.751 409.572 281.582 408.816C281.426 408.048 281.172 407.371 280.82 406.785C280.482 406.186 280.033 405.717 279.473 405.379C278.913 405.04 278.236 404.871 277.441 404.871C276.647 404.871 275.97 405.04 275.41 405.379C274.863 405.717 274.414 406.186 274.062 406.785C273.724 407.371 273.477 408.048 273.32 408.816C273.164 409.572 273.086 410.379 273.086 411.238ZM296.562 405.477V422H290.938V400.867H296.23L296.562 405.477ZM302.93 400.73L302.832 405.945C302.559 405.906 302.227 405.874 301.836 405.848C301.458 405.809 301.113 405.789 300.801 405.789C300.007 405.789 299.316 405.893 298.73 406.102C298.158 406.297 297.676 406.59 297.285 406.98C296.908 407.371 296.621 407.846 296.426 408.406C296.243 408.966 296.139 409.604 296.113 410.32L294.98 409.969C294.98 408.602 295.117 407.345 295.391 406.199C295.664 405.04 296.061 404.031 296.582 403.172C297.116 402.312 297.767 401.648 298.535 401.18C299.303 400.711 300.182 400.477 301.172 400.477C301.484 400.477 301.803 400.503 302.129 400.555C302.454 400.594 302.721 400.652 302.93 400.73ZM311.211 405.242V422H305.566V400.867H310.859L311.211 405.242ZM310.43 410.691H308.867C308.867 409.22 309.043 407.866 309.395 406.629C309.759 405.379 310.286 404.298 310.977 403.387C311.68 402.462 312.546 401.746 313.574 401.238C314.603 400.73 315.794 400.477 317.148 400.477C318.086 400.477 318.945 400.62 319.727 400.906C320.508 401.18 321.178 401.616 321.738 402.215C322.311 402.801 322.754 403.569 323.066 404.52C323.379 405.457 323.535 406.583 323.535 407.898V422H317.91V408.523C317.91 407.56 317.78 406.818 317.52 406.297C317.259 405.776 316.888 405.411 316.406 405.203C315.938 404.995 315.371 404.891 314.707 404.891C313.978 404.891 313.34 405.04 312.793 405.34C312.259 405.639 311.816 406.056 311.465 406.59C311.113 407.111 310.853 407.723 310.684 408.426C310.514 409.129 310.43 409.884 310.43 410.691ZM323.008 410.047L320.996 410.301C320.996 408.921 321.165 407.638 321.504 406.453C321.855 405.268 322.37 404.227 323.047 403.328C323.737 402.43 324.59 401.733 325.605 401.238C326.621 400.73 327.793 400.477 329.121 400.477C330.137 400.477 331.061 400.626 331.895 400.926C332.728 401.212 333.438 401.674 334.023 402.312C334.622 402.938 335.078 403.758 335.391 404.773C335.716 405.789 335.879 407.033 335.879 408.504V422H330.234V408.504C330.234 407.527 330.104 406.785 329.844 406.277C329.596 405.757 329.232 405.398 328.75 405.203C328.281 404.995 327.721 404.891 327.07 404.891C326.393 404.891 325.801 405.027 325.293 405.301C324.785 405.561 324.362 405.926 324.023 406.395C323.685 406.863 323.431 407.41 323.262 408.035C323.092 408.647 323.008 409.318 323.008 410.047ZM349.961 422.391C348.32 422.391 346.849 422.13 345.547 421.609C344.245 421.076 343.138 420.34 342.227 419.402C341.328 418.465 340.638 417.378 340.156 416.141C339.674 414.891 339.434 413.562 339.434 412.156V411.375C339.434 409.773 339.661 408.309 340.117 406.98C340.573 405.652 341.224 404.5 342.07 403.523C342.93 402.547 343.971 401.798 345.195 401.277C346.419 400.743 347.799 400.477 349.336 400.477C350.833 400.477 352.161 400.724 353.32 401.219C354.479 401.714 355.449 402.417 356.23 403.328C357.025 404.24 357.624 405.333 358.027 406.609C358.431 407.872 358.633 409.279 358.633 410.828V413.172H341.836V409.422H353.105V408.992C353.105 408.211 352.962 407.514 352.676 406.902C352.402 406.277 351.986 405.783 351.426 405.418C350.866 405.053 350.15 404.871 349.277 404.871C348.535 404.871 347.897 405.034 347.363 405.359C346.829 405.685 346.393 406.141 346.055 406.727C345.729 407.312 345.482 408.003 345.312 408.797C345.156 409.578 345.078 410.438 345.078 411.375V412.156C345.078 413.003 345.195 413.784 345.43 414.5C345.677 415.216 346.022 415.835 346.465 416.355C346.921 416.876 347.467 417.28 348.105 417.566C348.757 417.853 349.492 417.996 350.312 417.996C351.328 417.996 352.272 417.801 353.145 417.41C354.03 417.007 354.792 416.401 355.43 415.594L358.164 418.562C357.721 419.201 357.116 419.812 356.348 420.398C355.592 420.984 354.681 421.466 353.613 421.844C352.546 422.208 351.328 422.391 349.961 422.391ZM383.652 413.27V393.562H389.492V413.27C389.492 415.171 389.076 416.805 388.242 418.172C387.409 419.526 386.27 420.568 384.824 421.297C383.392 422.026 381.777 422.391 379.98 422.391C378.118 422.391 376.471 422.078 375.039 421.453C373.607 420.828 372.48 419.871 371.66 418.582C370.84 417.28 370.43 415.633 370.43 413.641H376.309C376.309 414.682 376.452 415.509 376.738 416.121C377.038 416.733 377.461 417.169 378.008 417.43C378.555 417.69 379.212 417.82 379.98 417.82C380.723 417.82 381.367 417.645 381.914 417.293C382.461 416.941 382.884 416.427 383.184 415.75C383.496 415.073 383.652 414.246 383.652 413.27ZM406.641 416.941V400.867H412.266V422H406.973L406.641 416.941ZM407.266 412.605L408.926 412.566C408.926 413.973 408.763 415.281 408.438 416.492C408.112 417.69 407.624 418.732 406.973 419.617C406.322 420.49 405.501 421.173 404.512 421.668C403.522 422.15 402.357 422.391 401.016 422.391C399.987 422.391 399.036 422.247 398.164 421.961C397.305 421.661 396.562 421.199 395.938 420.574C395.326 419.936 394.844 419.122 394.492 418.133C394.154 417.13 393.984 415.926 393.984 414.52V400.867H399.609V414.559C399.609 415.184 399.681 415.711 399.824 416.141C399.98 416.57 400.195 416.922 400.469 417.195C400.742 417.469 401.061 417.664 401.426 417.781C401.803 417.898 402.22 417.957 402.676 417.957C403.835 417.957 404.746 417.723 405.41 417.254C406.087 416.785 406.562 416.147 406.836 415.34C407.122 414.52 407.266 413.608 407.266 412.605ZM422.188 405.477V422H416.562V400.867H421.855L422.188 405.477ZM428.555 400.73L428.457 405.945C428.184 405.906 427.852 405.874 427.461 405.848C427.083 405.809 426.738 405.789 426.426 405.789C425.632 405.789 424.941 405.893 424.355 406.102C423.783 406.297 423.301 406.59 422.91 406.98C422.533 407.371 422.246 407.846 422.051 408.406C421.868 408.966 421.764 409.604 421.738 410.32L420.605 409.969C420.605 408.602 420.742 407.345 421.016 406.199C421.289 405.04 421.686 404.031 422.207 403.172C422.741 402.312 423.392 401.648 424.16 401.18C424.928 400.711 425.807 400.477 426.797 400.477C427.109 400.477 427.428 400.503 427.754 400.555C428.079 400.594 428.346 400.652 428.555 400.73ZM437.148 400.867V422H431.504V400.867H437.148ZM431.152 395.359C431.152 394.539 431.439 393.862 432.012 393.328C432.585 392.794 433.353 392.527 434.316 392.527C435.267 392.527 436.029 392.794 436.602 393.328C437.188 393.862 437.48 394.539 437.48 395.359C437.48 396.18 437.188 396.857 436.602 397.391C436.029 397.924 435.267 398.191 434.316 398.191C433.353 398.191 432.585 397.924 432.012 397.391C431.439 396.857 431.152 396.18 431.152 395.359ZM454.277 417.391V392H459.941V422H454.844L454.277 417.391ZM440.918 411.688V411.277C440.918 409.663 441.1 408.198 441.465 406.883C441.829 405.555 442.363 404.415 443.066 403.465C443.77 402.514 444.635 401.779 445.664 401.258C446.693 400.737 447.865 400.477 449.18 400.477C450.417 400.477 451.497 400.737 452.422 401.258C453.359 401.779 454.154 402.521 454.805 403.484C455.469 404.435 456.003 405.561 456.406 406.863C456.81 408.152 457.103 409.565 457.285 411.102V412C457.103 413.471 456.81 414.839 456.406 416.102C456.003 417.365 455.469 418.471 454.805 419.422C454.154 420.359 453.359 421.089 452.422 421.609C451.484 422.13 450.391 422.391 449.141 422.391C447.826 422.391 446.654 422.124 445.625 421.59C444.609 421.056 443.75 420.307 443.047 419.344C442.357 418.38 441.829 417.247 441.465 415.945C441.1 414.643 440.918 413.224 440.918 411.688ZM446.543 411.277V411.688C446.543 412.56 446.608 413.374 446.738 414.129C446.882 414.884 447.109 415.555 447.422 416.141C447.747 416.714 448.164 417.163 448.672 417.488C449.193 417.801 449.824 417.957 450.566 417.957C451.53 417.957 452.324 417.742 452.949 417.312C453.574 416.87 454.049 416.264 454.375 415.496C454.714 414.728 454.909 413.842 454.961 412.84V410.281C454.922 409.461 454.805 408.725 454.609 408.074C454.427 407.41 454.154 406.844 453.789 406.375C453.438 405.906 452.995 405.542 452.461 405.281C451.94 405.021 451.322 404.891 450.605 404.891C449.876 404.891 449.251 405.06 448.73 405.398C448.21 405.724 447.786 406.173 447.461 406.746C447.148 407.319 446.914 407.996 446.758 408.777C446.615 409.546 446.543 410.379 446.543 411.277ZM470.273 400.867V422H464.629V400.867H470.273ZM464.277 395.359C464.277 394.539 464.564 393.862 465.137 393.328C465.71 392.794 466.478 392.527 467.441 392.527C468.392 392.527 469.154 392.794 469.727 393.328C470.312 393.862 470.605 394.539 470.605 395.359C470.605 396.18 470.312 396.857 469.727 397.391C469.154 397.924 468.392 398.191 467.441 398.191C466.478 398.191 465.71 397.924 465.137 397.391C464.564 396.857 464.277 396.18 464.277 395.359ZM487.402 430.125V405.184L488.125 400.867H493.066V430.125H487.402ZM474.043 411.648V411.238C474.043 409.624 474.219 408.159 474.57 406.844C474.935 405.516 475.469 404.383 476.172 403.445C476.875 402.495 477.734 401.766 478.75 401.258C479.779 400.737 480.964 400.477 482.305 400.477C483.594 400.477 484.707 400.737 485.645 401.258C486.582 401.779 487.37 402.514 488.008 403.465C488.659 404.415 489.18 405.535 489.57 406.824C489.961 408.113 490.26 409.526 490.469 411.062V411.961C490.273 413.432 489.974 414.799 489.57 416.062C489.18 417.326 488.659 418.432 488.008 419.383C487.37 420.333 486.576 421.076 485.625 421.609C484.688 422.13 483.568 422.391 482.266 422.391C480.951 422.391 479.779 422.124 478.75 421.59C477.734 421.043 476.875 420.288 476.172 419.324C475.469 418.361 474.935 417.228 474.57 415.926C474.219 414.611 474.043 413.185 474.043 411.648ZM479.668 411.238V411.648C479.668 412.521 479.74 413.341 479.883 414.109C480.026 414.865 480.254 415.535 480.566 416.121C480.892 416.707 481.309 417.169 481.816 417.508C482.324 417.833 482.949 417.996 483.691 417.996C484.72 417.996 485.547 417.775 486.172 417.332C486.81 416.876 487.279 416.258 487.578 415.477C487.891 414.695 488.073 413.803 488.125 412.801V410.242C488.086 409.422 487.975 408.686 487.793 408.035C487.624 407.371 487.363 406.805 487.012 406.336C486.673 405.867 486.23 405.509 485.684 405.262C485.15 405.001 484.499 404.871 483.73 404.871C483.001 404.871 482.376 405.034 481.855 405.359C481.335 405.685 480.911 406.141 480.586 406.727C480.273 407.299 480.039 407.97 479.883 408.738C479.74 409.507 479.668 410.34 479.668 411.238ZM510 416.941V400.867H515.625V422H510.332L510 416.941ZM510.625 412.605L512.285 412.566C512.285 413.973 512.122 415.281 511.797 416.492C511.471 417.69 510.983 418.732 510.332 419.617C509.681 420.49 508.861 421.173 507.871 421.668C506.882 422.15 505.716 422.391 504.375 422.391C503.346 422.391 502.396 422.247 501.523 421.961C500.664 421.661 499.922 421.199 499.297 420.574C498.685 419.936 498.203 419.122 497.852 418.133C497.513 417.13 497.344 415.926 497.344 414.52V400.867H502.969V414.559C502.969 415.184 503.04 415.711 503.184 416.141C503.34 416.57 503.555 416.922 503.828 417.195C504.102 417.469 504.421 417.664 504.785 417.781C505.163 417.898 505.579 417.957 506.035 417.957C507.194 417.957 508.105 417.723 508.77 417.254C509.447 416.785 509.922 416.147 510.195 415.34C510.482 414.52 510.625 413.608 510.625 412.605ZM529.648 422.391C528.008 422.391 526.536 422.13 525.234 421.609C523.932 421.076 522.826 420.34 521.914 419.402C521.016 418.465 520.326 417.378 519.844 416.141C519.362 414.891 519.121 413.562 519.121 412.156V411.375C519.121 409.773 519.349 408.309 519.805 406.98C520.26 405.652 520.911 404.5 521.758 403.523C522.617 402.547 523.659 401.798 524.883 401.277C526.107 400.743 527.487 400.477 529.023 400.477C530.521 400.477 531.849 400.724 533.008 401.219C534.167 401.714 535.137 402.417 535.918 403.328C536.712 404.24 537.311 405.333 537.715 406.609C538.118 407.872 538.32 409.279 538.32 410.828V413.172H521.523V409.422H532.793V408.992C532.793 408.211 532.65 407.514 532.363 406.902C532.09 406.277 531.673 405.783 531.113 405.418C530.553 405.053 529.837 404.871 528.965 404.871C528.223 404.871 527.585 405.034 527.051 405.359C526.517 405.685 526.081 406.141 525.742 406.727C525.417 407.312 525.169 408.003 525 408.797C524.844 409.578 524.766 410.438 524.766 411.375V412.156C524.766 413.003 524.883 413.784 525.117 414.5C525.365 415.216 525.71 415.835 526.152 416.355C526.608 416.876 527.155 417.28 527.793 417.566C528.444 417.853 529.18 417.996 530 417.996C531.016 417.996 531.96 417.801 532.832 417.41C533.717 417.007 534.479 416.401 535.117 415.594L537.852 418.562C537.409 419.201 536.803 419.812 536.035 420.398C535.28 420.984 534.368 421.466 533.301 421.844C532.233 422.208 531.016 422.391 529.648 422.391Z" fill="url(#paint2_linear_3_37)"/>
<line x1="38" y1="369.5" x2="486" y2="369.5" stroke="#9441FF" stroke-width="3"/>
<defs>
<linearGradient id="paint0_linear_3_37" x1="293.465" y1="156.322" x2="1074.28" y2="125.864" gradientUnits="userSpaceOnUse">
<stop stop-color="#110224" stop-opacity="0.47"/>
<stop offset="0.401042" stop-color="#EE1CC0" stop-opacity="0.51"/>
<stop offset="1" stop-color="#FF000F" stop-opacity="0.25"/>
</linearGradient>
<linearGradient id="paint1_linear_3_37" x1="180.338" y1="297.047" x2="989.156" y2="250.11" gradientUnits="userSpaceOnUse">
<stop stop-color="#110224"/>
<stop offset="0.401042" stop-color="#EE1CC0" stop-opacity="0.51"/>
<stop offset="1" stop-color="#FF000F" stop-opacity="0.25"/>
</linearGradient>
<linearGradient id="paint2_linear_3_37" x1="161.338" y1="494.047" x2="970.156" y2="447.11" gradientUnits="userSpaceOnUse">
<stop stop-color="#110224"/>
<stop offset="0.401042" stop-color="#EE1CC0" stop-opacity="0.51"/>
<stop offset="1" stop-color="#FF000F" stop-opacity="0.25"/>
</linearGradient>
</defs>
</svg>
