<svg width="1037" height="479" viewBox="0 0 1037 479" fill="none" xmlns="http://www.w3.org/2000/svg">
<path d="M126.474 147.993H148.805L181.685 241.976L214.566 147.993H236.897L190.653 276H172.718L126.474 147.993ZM114.429 147.993H136.672L140.716 239.603V276H114.429V147.993ZM226.699 147.993H249.03V276H222.655V239.603L226.699 147.993ZM284.196 147.993H306.527L339.408 241.976L372.289 147.993H394.62L348.375 276H330.44L284.196 147.993ZM272.152 147.993H294.395L298.439 239.603V276H272.152V147.993ZM384.421 147.993H406.752V276H380.377V239.603L384.421 147.993ZM456.249 147.993V276H429.874V147.993H456.249ZM507.241 202.678V223.25H449.04V202.678H507.241ZM513.395 147.993V168.654H449.04V147.993H513.395ZM560.606 236.701V147.993H586.893V236.701C586.893 245.258 585.018 252.614 581.267 258.768C577.516 264.864 572.387 269.553 565.881 272.835C559.434 276.117 552.166 277.758 544.078 277.758C535.697 277.758 528.282 276.352 521.835 273.538C515.388 270.725 510.318 266.417 506.625 260.615C502.933 254.753 501.087 247.339 501.087 238.372H527.55C527.55 243.061 528.194 246.782 529.484 249.537C530.832 252.292 532.737 254.255 535.198 255.428C537.66 256.6 540.62 257.186 544.078 257.186C547.419 257.186 550.32 256.395 552.782 254.812C555.243 253.23 557.148 250.914 558.496 247.867C559.903 244.819 560.606 241.097 560.606 236.701Z" fill="url(#paint0_linear_1_28)"/>
<path d="M76.3996 148.274C79.3301 148.274 82.1728 148.039 84.9275 147.57C87.7408 147.102 90.4076 146.398 92.9279 145.46L96.0929 166.033C92.6349 166.853 89.001 167.498 85.1912 167.967C81.3815 168.436 77.5132 168.67 73.5862 168.67C66.2012 168.67 59.4024 167.645 53.1896 165.593C46.9768 163.542 41.5846 160.465 37.0129 156.362C32.4999 152.201 28.9832 147.072 26.4629 140.977C23.9426 134.823 22.6825 127.643 22.6825 119.437V89.1058C22.6825 80.5486 23.9426 73.0464 26.4629 66.5992C29.0418 60.1519 32.6757 54.7597 37.3646 50.4225C42.0535 46.0853 47.6215 42.8324 54.0687 40.6638C60.516 38.4365 67.6665 37.3229 75.5204 37.3229C78.9785 37.3229 82.4072 37.5867 85.8067 38.1142C89.2647 38.5831 92.6935 39.2278 96.0929 40.0483L92.9279 60.7088C90.6421 59.8296 88.0632 59.1263 85.1912 58.5988C82.3779 58.0713 79.5939 57.8075 76.8392 57.8075C72.5019 57.8075 68.6043 58.4229 65.1462 59.6538C61.6882 60.826 58.7576 62.6722 56.3546 65.1925C54.0101 67.6542 52.2225 70.8485 50.9917 74.7754C49.7608 78.7024 49.1454 83.4206 49.1454 88.93V119.437C49.1454 124.829 49.7901 129.401 51.0796 133.152C52.369 136.845 54.2153 139.804 56.6183 142.032C59.0214 144.2 61.8933 145.783 65.2342 146.779C68.575 147.776 72.2968 148.274 76.3996 148.274ZM78.5096 84.1825V97.1942H7.82458V84.1825H78.5096ZM78.5096 108.36V121.371H7.82458V108.36H78.5096Z" fill="url(#paint1_linear_1_28)"/>
<path d="M89.2148 314.562H94.1758L101.48 335.441L108.785 314.562H113.746L103.473 343H99.4883L89.2148 314.562ZM86.5391 314.562H91.4805L92.3789 334.914V343H86.5391V314.562ZM111.48 314.562H116.441V343H110.582V334.914L111.48 314.562ZM132.633 338.234V328.82C132.633 328.143 132.522 327.564 132.301 327.082C132.079 326.587 131.734 326.203 131.266 325.93C130.81 325.656 130.217 325.52 129.488 325.52C128.863 325.52 128.323 325.63 127.867 325.852C127.411 326.06 127.06 326.366 126.812 326.77C126.565 327.16 126.441 327.622 126.441 328.156H120.816C120.816 327.258 121.025 326.405 121.441 325.598C121.858 324.79 122.464 324.081 123.258 323.469C124.052 322.844 124.996 322.355 126.09 322.004C127.197 321.652 128.434 321.477 129.801 321.477C131.441 321.477 132.9 321.75 134.176 322.297C135.452 322.844 136.454 323.664 137.184 324.758C137.926 325.852 138.297 327.219 138.297 328.859V337.902C138.297 339.061 138.368 340.012 138.512 340.754C138.655 341.483 138.863 342.121 139.137 342.668V343H133.453C133.18 342.427 132.971 341.711 132.828 340.852C132.698 339.979 132.633 339.107 132.633 338.234ZM133.375 330.129L133.414 333.312H130.27C129.527 333.312 128.883 333.397 128.336 333.566C127.789 333.736 127.34 333.977 126.988 334.289C126.637 334.589 126.376 334.94 126.207 335.344C126.051 335.747 125.973 336.19 125.973 336.672C125.973 337.154 126.083 337.59 126.305 337.98C126.526 338.358 126.845 338.658 127.262 338.879C127.678 339.087 128.167 339.191 128.727 339.191C129.573 339.191 130.309 339.022 130.934 338.684C131.559 338.345 132.04 337.928 132.379 337.434C132.73 336.939 132.913 336.47 132.926 336.027L134.41 338.41C134.202 338.944 133.915 339.497 133.551 340.07C133.199 340.643 132.75 341.184 132.203 341.691C131.656 342.186 130.999 342.596 130.23 342.922C129.462 343.234 128.551 343.391 127.496 343.391C126.155 343.391 124.938 343.124 123.844 342.59C122.763 342.043 121.904 341.294 121.266 340.344C120.641 339.38 120.328 338.286 120.328 337.062C120.328 335.956 120.536 334.973 120.953 334.113C121.37 333.254 121.982 332.531 122.789 331.945C123.609 331.346 124.632 330.897 125.855 330.598C127.079 330.285 128.499 330.129 130.113 330.129H133.375ZM155.621 314.562H160.582L167.887 335.441L175.191 314.562H180.152L169.879 343H165.895L155.621 314.562ZM152.945 314.562H157.887L158.785 334.914V343H152.945V314.562ZM177.887 314.562H182.848V343H176.988V334.914L177.887 314.562ZM197.359 343.391C195.719 343.391 194.247 343.13 192.945 342.609C191.643 342.076 190.536 341.34 189.625 340.402C188.727 339.465 188.036 338.378 187.555 337.141C187.073 335.891 186.832 334.562 186.832 333.156V332.375C186.832 330.773 187.06 329.309 187.516 327.98C187.971 326.652 188.622 325.5 189.469 324.523C190.328 323.547 191.37 322.798 192.594 322.277C193.818 321.743 195.198 321.477 196.734 321.477C198.232 321.477 199.56 321.724 200.719 322.219C201.878 322.714 202.848 323.417 203.629 324.328C204.423 325.24 205.022 326.333 205.426 327.609C205.829 328.872 206.031 330.279 206.031 331.828V334.172H189.234V330.422H200.504V329.992C200.504 329.211 200.361 328.514 200.074 327.902C199.801 327.277 199.384 326.783 198.824 326.418C198.264 326.053 197.548 325.871 196.676 325.871C195.934 325.871 195.296 326.034 194.762 326.359C194.228 326.685 193.792 327.141 193.453 327.727C193.128 328.312 192.88 329.003 192.711 329.797C192.555 330.578 192.477 331.438 192.477 332.375V333.156C192.477 334.003 192.594 334.784 192.828 335.5C193.076 336.216 193.421 336.835 193.863 337.355C194.319 337.876 194.866 338.28 195.504 338.566C196.155 338.853 196.891 338.996 197.711 338.996C198.727 338.996 199.671 338.801 200.543 338.41C201.428 338.007 202.19 337.401 202.828 336.594L205.562 339.562C205.12 340.201 204.514 340.812 203.746 341.398C202.991 341.984 202.079 342.466 201.012 342.844C199.944 343.208 198.727 343.391 197.359 343.391ZM215.172 321.867V343H209.527V321.867H215.172ZM209.176 316.359C209.176 315.539 209.462 314.862 210.035 314.328C210.608 313.794 211.376 313.527 212.34 313.527C213.29 313.527 214.052 313.794 214.625 314.328C215.211 314.862 215.504 315.539 215.504 316.359C215.504 317.18 215.211 317.857 214.625 318.391C214.052 318.924 213.29 319.191 212.34 319.191C211.376 319.191 210.608 318.924 210.035 318.391C209.462 317.857 209.176 317.18 209.176 316.359ZM225.758 313V343H220.113V313H225.758ZM236.344 313V343H230.699V313H236.344ZM250.719 343.391C249.078 343.391 247.607 343.13 246.305 342.609C245.003 342.076 243.896 341.34 242.984 340.402C242.086 339.465 241.396 338.378 240.914 337.141C240.432 335.891 240.191 334.562 240.191 333.156V332.375C240.191 330.773 240.419 329.309 240.875 327.98C241.331 326.652 241.982 325.5 242.828 324.523C243.688 323.547 244.729 322.798 245.953 322.277C247.177 321.743 248.557 321.477 250.094 321.477C251.591 321.477 252.919 321.724 254.078 322.219C255.237 322.714 256.207 323.417 256.988 324.328C257.783 325.24 258.382 326.333 258.785 327.609C259.189 328.872 259.391 330.279 259.391 331.828V334.172H242.594V330.422H253.863V329.992C253.863 329.211 253.72 328.514 253.434 327.902C253.16 327.277 252.743 326.783 252.184 326.418C251.624 326.053 250.908 325.871 250.035 325.871C249.293 325.871 248.655 326.034 248.121 326.359C247.587 326.685 247.151 327.141 246.812 327.727C246.487 328.312 246.24 329.003 246.07 329.797C245.914 330.578 245.836 331.438 245.836 332.375V333.156C245.836 334.003 245.953 334.784 246.188 335.5C246.435 336.216 246.78 336.835 247.223 337.355C247.678 337.876 248.225 338.28 248.863 338.566C249.514 338.853 250.25 338.996 251.07 338.996C252.086 338.996 253.03 338.801 253.902 338.41C254.788 338.007 255.549 337.401 256.188 336.594L258.922 339.562C258.479 340.201 257.874 340.812 257.105 341.398C256.35 341.984 255.439 342.466 254.371 342.844C253.303 343.208 252.086 343.391 250.719 343.391ZM275.094 337.941V321.867H280.719V343H275.426L275.094 337.941ZM275.719 333.605L277.379 333.566C277.379 334.973 277.216 336.281 276.891 337.492C276.565 338.69 276.077 339.732 275.426 340.617C274.775 341.49 273.954 342.173 272.965 342.668C271.975 343.15 270.81 343.391 269.469 343.391C268.44 343.391 267.49 343.247 266.617 342.961C265.758 342.661 265.016 342.199 264.391 341.574C263.779 340.936 263.297 340.122 262.945 339.133C262.607 338.13 262.438 336.926 262.438 335.52V321.867H268.062V335.559C268.062 336.184 268.134 336.711 268.277 337.141C268.434 337.57 268.648 337.922 268.922 338.195C269.195 338.469 269.514 338.664 269.879 338.781C270.257 338.898 270.673 338.957 271.129 338.957C272.288 338.957 273.199 338.723 273.863 338.254C274.54 337.785 275.016 337.147 275.289 336.34C275.576 335.52 275.719 334.608 275.719 333.605ZM290.641 326.477V343H285.016V321.867H290.309L290.641 326.477ZM297.008 321.73L296.91 326.945C296.637 326.906 296.305 326.874 295.914 326.848C295.536 326.809 295.191 326.789 294.879 326.789C294.085 326.789 293.395 326.893 292.809 327.102C292.236 327.297 291.754 327.59 291.363 327.98C290.986 328.371 290.699 328.846 290.504 329.406C290.322 329.966 290.217 330.604 290.191 331.32L289.059 330.969C289.059 329.602 289.195 328.345 289.469 327.199C289.742 326.04 290.139 325.031 290.66 324.172C291.194 323.312 291.845 322.648 292.613 322.18C293.382 321.711 294.26 321.477 295.25 321.477C295.562 321.477 295.882 321.503 296.207 321.555C296.533 321.594 296.799 321.652 297.008 321.73ZM309 343.391C307.359 343.391 305.888 343.13 304.586 342.609C303.284 342.076 302.177 341.34 301.266 340.402C300.367 339.465 299.677 338.378 299.195 337.141C298.714 335.891 298.473 334.562 298.473 333.156V332.375C298.473 330.773 298.701 329.309 299.156 327.98C299.612 326.652 300.263 325.5 301.109 324.523C301.969 323.547 303.01 322.798 304.234 322.277C305.458 321.743 306.839 321.477 308.375 321.477C309.872 321.477 311.201 321.724 312.359 322.219C313.518 322.714 314.488 323.417 315.27 324.328C316.064 325.24 316.663 326.333 317.066 327.609C317.47 328.872 317.672 330.279 317.672 331.828V334.172H300.875V330.422H312.145V329.992C312.145 329.211 312.001 328.514 311.715 327.902C311.441 327.277 311.025 326.783 310.465 326.418C309.905 326.053 309.189 325.871 308.316 325.871C307.574 325.871 306.936 326.034 306.402 326.359C305.868 326.685 305.432 327.141 305.094 327.727C304.768 328.312 304.521 329.003 304.352 329.797C304.195 330.578 304.117 331.438 304.117 332.375V333.156C304.117 334.003 304.234 334.784 304.469 335.5C304.716 336.216 305.061 336.835 305.504 337.355C305.96 337.876 306.507 338.28 307.145 338.566C307.796 338.853 308.531 338.996 309.352 338.996C310.367 338.996 311.311 338.801 312.184 338.41C313.069 338.007 313.831 337.401 314.469 336.594L317.203 339.562C316.76 340.201 316.155 340.812 315.387 341.398C314.632 341.984 313.72 342.466 312.652 342.844C311.585 343.208 310.367 343.391 309 343.391ZM337.047 314.562V343H331.188V314.562H337.047ZM348.375 326.711V331.281H335.445V326.711H348.375ZM349.742 314.562V319.152H335.445V314.562H349.742ZM351.461 332.648V332.238C351.461 330.689 351.682 329.263 352.125 327.961C352.568 326.646 353.212 325.507 354.059 324.543C354.905 323.579 355.947 322.831 357.184 322.297C358.421 321.75 359.84 321.477 361.441 321.477C363.043 321.477 364.469 321.75 365.719 322.297C366.969 322.831 368.017 323.579 368.863 324.543C369.723 325.507 370.374 326.646 370.816 327.961C371.259 329.263 371.48 330.689 371.48 332.238V332.648C371.48 334.185 371.259 335.611 370.816 336.926C370.374 338.228 369.723 339.367 368.863 340.344C368.017 341.307 366.975 342.056 365.738 342.59C364.501 343.124 363.082 343.391 361.48 343.391C359.879 343.391 358.453 343.124 357.203 342.59C355.966 342.056 354.918 341.307 354.059 340.344C353.212 339.367 352.568 338.228 352.125 336.926C351.682 335.611 351.461 334.185 351.461 332.648ZM357.086 332.238V332.648C357.086 333.534 357.164 334.361 357.32 335.129C357.477 335.897 357.724 336.574 358.062 337.16C358.414 337.733 358.87 338.182 359.43 338.508C359.99 338.833 360.673 338.996 361.48 338.996C362.262 338.996 362.932 338.833 363.492 338.508C364.052 338.182 364.501 337.733 364.84 337.16C365.178 336.574 365.426 335.897 365.582 335.129C365.751 334.361 365.836 333.534 365.836 332.648V332.238C365.836 331.379 365.751 330.572 365.582 329.816C365.426 329.048 365.172 328.371 364.82 327.785C364.482 327.186 364.033 326.717 363.473 326.379C362.913 326.04 362.236 325.871 361.441 325.871C360.647 325.871 359.97 326.04 359.41 326.379C358.863 326.717 358.414 327.186 358.062 327.785C357.724 328.371 357.477 329.048 357.32 329.816C357.164 330.572 357.086 331.379 357.086 332.238ZM380.562 326.477V343H374.938V321.867H380.23L380.562 326.477ZM386.93 321.73L386.832 326.945C386.559 326.906 386.227 326.874 385.836 326.848C385.458 326.809 385.113 326.789 384.801 326.789C384.007 326.789 383.316 326.893 382.73 327.102C382.158 327.297 381.676 327.59 381.285 327.98C380.908 328.371 380.621 328.846 380.426 329.406C380.243 329.966 380.139 330.604 380.113 331.32L378.98 330.969C378.98 329.602 379.117 328.345 379.391 327.199C379.664 326.04 380.061 325.031 380.582 324.172C381.116 323.312 381.767 322.648 382.535 322.18C383.303 321.711 384.182 321.477 385.172 321.477C385.484 321.477 385.803 321.503 386.129 321.555C386.454 321.594 386.721 321.652 386.93 321.73ZM395.211 326.242V343H389.566V321.867H394.859L395.211 326.242ZM394.43 331.691H392.867C392.867 330.22 393.043 328.866 393.395 327.629C393.759 326.379 394.286 325.298 394.977 324.387C395.68 323.462 396.546 322.746 397.574 322.238C398.603 321.73 399.794 321.477 401.148 321.477C402.086 321.477 402.945 321.62 403.727 321.906C404.508 322.18 405.178 322.616 405.738 323.215C406.311 323.801 406.754 324.569 407.066 325.52C407.379 326.457 407.535 327.583 407.535 328.898V343H401.91V329.523C401.91 328.56 401.78 327.818 401.52 327.297C401.259 326.776 400.888 326.411 400.406 326.203C399.938 325.995 399.371 325.891 398.707 325.891C397.978 325.891 397.34 326.04 396.793 326.34C396.259 326.639 395.816 327.056 395.465 327.59C395.113 328.111 394.853 328.723 394.684 329.426C394.514 330.129 394.43 330.884 394.43 331.691ZM407.008 331.047L404.996 331.301C404.996 329.921 405.165 328.638 405.504 327.453C405.855 326.268 406.37 325.227 407.047 324.328C407.737 323.43 408.59 322.733 409.605 322.238C410.621 321.73 411.793 321.477 413.121 321.477C414.137 321.477 415.061 321.626 415.895 321.926C416.728 322.212 417.438 322.674 418.023 323.312C418.622 323.938 419.078 324.758 419.391 325.773C419.716 326.789 419.879 328.033 419.879 329.504V343H414.234V329.504C414.234 328.527 414.104 327.785 413.844 327.277C413.596 326.757 413.232 326.398 412.75 326.203C412.281 325.995 411.721 325.891 411.07 325.891C410.393 325.891 409.801 326.027 409.293 326.301C408.785 326.561 408.362 326.926 408.023 327.395C407.685 327.863 407.431 328.41 407.262 329.035C407.092 329.647 407.008 330.318 407.008 331.047ZM433.961 343.391C432.32 343.391 430.849 343.13 429.547 342.609C428.245 342.076 427.138 341.34 426.227 340.402C425.328 339.465 424.638 338.378 424.156 337.141C423.674 335.891 423.434 334.562 423.434 333.156V332.375C423.434 330.773 423.661 329.309 424.117 327.98C424.573 326.652 425.224 325.5 426.07 324.523C426.93 323.547 427.971 322.798 429.195 322.277C430.419 321.743 431.799 321.477 433.336 321.477C434.833 321.477 436.161 321.724 437.32 322.219C438.479 322.714 439.449 323.417 440.23 324.328C441.025 325.24 441.624 326.333 442.027 327.609C442.431 328.872 442.633 330.279 442.633 331.828V334.172H425.836V330.422H437.105V329.992C437.105 329.211 436.962 328.514 436.676 327.902C436.402 327.277 435.986 326.783 435.426 326.418C434.866 326.053 434.15 325.871 433.277 325.871C432.535 325.871 431.897 326.034 431.363 326.359C430.829 326.685 430.393 327.141 430.055 327.727C429.729 328.312 429.482 329.003 429.312 329.797C429.156 330.578 429.078 331.438 429.078 332.375V333.156C429.078 334.003 429.195 334.784 429.43 335.5C429.677 336.216 430.022 336.835 430.465 337.355C430.921 337.876 431.467 338.28 432.105 338.566C432.757 338.853 433.492 338.996 434.312 338.996C435.328 338.996 436.272 338.801 437.145 338.41C438.03 338.007 438.792 337.401 439.43 336.594L442.164 339.562C441.721 340.201 441.116 340.812 440.348 341.398C439.592 341.984 438.681 342.466 437.613 342.844C436.546 343.208 435.328 343.391 433.961 343.391ZM467.652 334.27V314.562H473.492V334.27C473.492 336.171 473.076 337.805 472.242 339.172C471.409 340.526 470.27 341.568 468.824 342.297C467.392 343.026 465.777 343.391 463.98 343.391C462.118 343.391 460.471 343.078 459.039 342.453C457.607 341.828 456.48 340.871 455.66 339.582C454.84 338.28 454.43 336.633 454.43 334.641H460.309C460.309 335.682 460.452 336.509 460.738 337.121C461.038 337.733 461.461 338.169 462.008 338.43C462.555 338.69 463.212 338.82 463.98 338.82C464.723 338.82 465.367 338.645 465.914 338.293C466.461 337.941 466.884 337.427 467.184 336.75C467.496 336.073 467.652 335.246 467.652 334.27ZM490.641 337.941V321.867H496.266V343H490.973L490.641 337.941ZM491.266 333.605L492.926 333.566C492.926 334.973 492.763 336.281 492.438 337.492C492.112 338.69 491.624 339.732 490.973 340.617C490.322 341.49 489.501 342.173 488.512 342.668C487.522 343.15 486.357 343.391 485.016 343.391C483.987 343.391 483.036 343.247 482.164 342.961C481.305 342.661 480.562 342.199 479.938 341.574C479.326 340.936 478.844 340.122 478.492 339.133C478.154 338.13 477.984 336.926 477.984 335.52V321.867H483.609V335.559C483.609 336.184 483.681 336.711 483.824 337.141C483.98 337.57 484.195 337.922 484.469 338.195C484.742 338.469 485.061 338.664 485.426 338.781C485.803 338.898 486.22 338.957 486.676 338.957C487.835 338.957 488.746 338.723 489.41 338.254C490.087 337.785 490.562 337.147 490.836 336.34C491.122 335.52 491.266 334.608 491.266 333.605ZM506.188 326.477V343H500.562V321.867H505.855L506.188 326.477ZM512.555 321.73L512.457 326.945C512.184 326.906 511.852 326.874 511.461 326.848C511.083 326.809 510.738 326.789 510.426 326.789C509.632 326.789 508.941 326.893 508.355 327.102C507.783 327.297 507.301 327.59 506.91 327.98C506.533 328.371 506.246 328.846 506.051 329.406C505.868 329.966 505.764 330.604 505.738 331.32L504.605 330.969C504.605 329.602 504.742 328.345 505.016 327.199C505.289 326.04 505.686 325.031 506.207 324.172C506.741 323.312 507.392 322.648 508.16 322.18C508.928 321.711 509.807 321.477 510.797 321.477C511.109 321.477 511.428 321.503 511.754 321.555C512.079 321.594 512.346 321.652 512.555 321.73ZM521.148 321.867V343H515.504V321.867H521.148ZM515.152 316.359C515.152 315.539 515.439 314.862 516.012 314.328C516.585 313.794 517.353 313.527 518.316 313.527C519.267 313.527 520.029 313.794 520.602 314.328C521.188 314.862 521.48 315.539 521.48 316.359C521.48 317.18 521.188 317.857 520.602 318.391C520.029 318.924 519.267 319.191 518.316 319.191C517.353 319.191 516.585 318.924 516.012 318.391C515.439 317.857 515.152 317.18 515.152 316.359ZM538.277 338.391V313H543.941V343H538.844L538.277 338.391ZM524.918 332.688V332.277C524.918 330.663 525.1 329.198 525.465 327.883C525.829 326.555 526.363 325.415 527.066 324.465C527.77 323.514 528.635 322.779 529.664 322.258C530.693 321.737 531.865 321.477 533.18 321.477C534.417 321.477 535.497 321.737 536.422 322.258C537.359 322.779 538.154 323.521 538.805 324.484C539.469 325.435 540.003 326.561 540.406 327.863C540.81 329.152 541.103 330.565 541.285 332.102V333C541.103 334.471 540.81 335.839 540.406 337.102C540.003 338.365 539.469 339.471 538.805 340.422C538.154 341.359 537.359 342.089 536.422 342.609C535.484 343.13 534.391 343.391 533.141 343.391C531.826 343.391 530.654 343.124 529.625 342.59C528.609 342.056 527.75 341.307 527.047 340.344C526.357 339.38 525.829 338.247 525.465 336.945C525.1 335.643 524.918 334.224 524.918 332.688ZM530.543 332.277V332.688C530.543 333.56 530.608 334.374 530.738 335.129C530.882 335.884 531.109 336.555 531.422 337.141C531.747 337.714 532.164 338.163 532.672 338.488C533.193 338.801 533.824 338.957 534.566 338.957C535.53 338.957 536.324 338.742 536.949 338.312C537.574 337.87 538.049 337.264 538.375 336.496C538.714 335.728 538.909 334.842 538.961 333.84V331.281C538.922 330.461 538.805 329.725 538.609 329.074C538.427 328.41 538.154 327.844 537.789 327.375C537.438 326.906 536.995 326.542 536.461 326.281C535.94 326.021 535.322 325.891 534.605 325.891C533.876 325.891 533.251 326.06 532.73 326.398C532.21 326.724 531.786 327.173 531.461 327.746C531.148 328.319 530.914 328.996 530.758 329.777C530.615 330.546 530.543 331.379 530.543 332.277ZM554.273 321.867V343H548.629V321.867H554.273ZM548.277 316.359C548.277 315.539 548.564 314.862 549.137 314.328C549.71 313.794 550.478 313.527 551.441 313.527C552.392 313.527 553.154 313.794 553.727 314.328C554.312 314.862 554.605 315.539 554.605 316.359C554.605 317.18 554.312 317.857 553.727 318.391C553.154 318.924 552.392 319.191 551.441 319.191C550.478 319.191 549.71 318.924 549.137 318.391C548.564 317.857 548.277 317.18 548.277 316.359ZM571.402 351.125V326.184L572.125 321.867H577.066V351.125H571.402ZM558.043 332.648V332.238C558.043 330.624 558.219 329.159 558.57 327.844C558.935 326.516 559.469 325.383 560.172 324.445C560.875 323.495 561.734 322.766 562.75 322.258C563.779 321.737 564.964 321.477 566.305 321.477C567.594 321.477 568.707 321.737 569.645 322.258C570.582 322.779 571.37 323.514 572.008 324.465C572.659 325.415 573.18 326.535 573.57 327.824C573.961 329.113 574.26 330.526 574.469 332.062V332.961C574.273 334.432 573.974 335.799 573.57 337.062C573.18 338.326 572.659 339.432 572.008 340.383C571.37 341.333 570.576 342.076 569.625 342.609C568.688 343.13 567.568 343.391 566.266 343.391C564.951 343.391 563.779 343.124 562.75 342.59C561.734 342.043 560.875 341.288 560.172 340.324C559.469 339.361 558.935 338.228 558.57 336.926C558.219 335.611 558.043 334.185 558.043 332.648ZM563.668 332.238V332.648C563.668 333.521 563.74 334.341 563.883 335.109C564.026 335.865 564.254 336.535 564.566 337.121C564.892 337.707 565.309 338.169 565.816 338.508C566.324 338.833 566.949 338.996 567.691 338.996C568.72 338.996 569.547 338.775 570.172 338.332C570.81 337.876 571.279 337.258 571.578 336.477C571.891 335.695 572.073 334.803 572.125 333.801V331.242C572.086 330.422 571.975 329.686 571.793 329.035C571.624 328.371 571.363 327.805 571.012 327.336C570.673 326.867 570.23 326.509 569.684 326.262C569.15 326.001 568.499 325.871 567.73 325.871C567.001 325.871 566.376 326.034 565.855 326.359C565.335 326.685 564.911 327.141 564.586 327.727C564.273 328.299 564.039 328.97 563.883 329.738C563.74 330.507 563.668 331.34 563.668 332.238ZM594 337.941V321.867H599.625V343H594.332L594 337.941ZM594.625 333.605L596.285 333.566C596.285 334.973 596.122 336.281 595.797 337.492C595.471 338.69 594.983 339.732 594.332 340.617C593.681 341.49 592.861 342.173 591.871 342.668C590.882 343.15 589.716 343.391 588.375 343.391C587.346 343.391 586.396 343.247 585.523 342.961C584.664 342.661 583.922 342.199 583.297 341.574C582.685 340.936 582.203 340.122 581.852 339.133C581.513 338.13 581.344 336.926 581.344 335.52V321.867H586.969V335.559C586.969 336.184 587.04 336.711 587.184 337.141C587.34 337.57 587.555 337.922 587.828 338.195C588.102 338.469 588.421 338.664 588.785 338.781C589.163 338.898 589.579 338.957 590.035 338.957C591.194 338.957 592.105 338.723 592.77 338.254C593.447 337.785 593.922 337.147 594.195 336.34C594.482 335.52 594.625 334.608 594.625 333.605ZM613.648 343.391C612.008 343.391 610.536 343.13 609.234 342.609C607.932 342.076 606.826 341.34 605.914 340.402C605.016 339.465 604.326 338.378 603.844 337.141C603.362 335.891 603.121 334.562 603.121 333.156V332.375C603.121 330.773 603.349 329.309 603.805 327.98C604.26 326.652 604.911 325.5 605.758 324.523C606.617 323.547 607.659 322.798 608.883 322.277C610.107 321.743 611.487 321.477 613.023 321.477C614.521 321.477 615.849 321.724 617.008 322.219C618.167 322.714 619.137 323.417 619.918 324.328C620.712 325.24 621.311 326.333 621.715 327.609C622.118 328.872 622.32 330.279 622.32 331.828V334.172H605.523V330.422H616.793V329.992C616.793 329.211 616.65 328.514 616.363 327.902C616.09 327.277 615.673 326.783 615.113 326.418C614.553 326.053 613.837 325.871 612.965 325.871C612.223 325.871 611.585 326.034 611.051 326.359C610.517 326.685 610.081 327.141 609.742 327.727C609.417 328.312 609.169 329.003 609 329.797C608.844 330.578 608.766 331.438 608.766 332.375V333.156C608.766 334.003 608.883 334.784 609.117 335.5C609.365 336.216 609.71 336.835 610.152 337.355C610.608 337.876 611.155 338.28 611.793 338.566C612.444 338.853 613.18 338.996 614 338.996C615.016 338.996 615.96 338.801 616.832 338.41C617.717 338.007 618.479 337.401 619.117 336.594L621.852 339.562C621.409 340.201 620.803 340.812 620.035 341.398C619.28 341.984 618.368 342.466 617.301 342.844C616.233 343.208 615.016 343.391 613.648 343.391Z" fill="url(#paint2_linear_1_28)"/>
<line x1="122" y1="290.5" x2="570" y2="290.5" stroke="#9441FF" stroke-width="3"/>
<defs>
<linearGradient id="paint0_linear_1_28" x1="264.338" y1="218.047" x2="1073.16" y2="171.11" gradientUnits="userSpaceOnUse">
<stop stop-color="#110224"/>
<stop offset="0.401042" stop-color="#EE1CC0" stop-opacity="0.51"/>
<stop offset="1" stop-color="#FF000F" stop-opacity="0.25"/>
</linearGradient>
<linearGradient id="paint1_linear_1_28" x1="161.338" y1="109.047" x2="970.156" y2="62.1104" gradientUnits="userSpaceOnUse">
<stop stop-color="#110224"/>
<stop offset="0.401042" stop-color="#EE1CC0" stop-opacity="0.51"/>
<stop offset="1" stop-color="#FF000F" stop-opacity="0.25"/>
</linearGradient>
<linearGradient id="paint2_linear_1_28" x1="245.338" y1="415.047" x2="1054.16" y2="368.11" gradientUnits="userSpaceOnUse">
<stop stop-color="#110224"/>
<stop offset="0.401042" stop-color="#EE1CC0" stop-opacity="0.51"/>
<stop offset="1" stop-color="#FF000F" stop-opacity="0.25"/>
</linearGradient>
</defs>
</svg>
