<svg width="1316" height="542" viewBox="0 0 1316 542" fill="none" xmlns="http://www.w3.org/2000/svg">
<path d="M628.158 411.998C636.296 411.998 644.19 411.347 651.84 410.045C659.652 408.743 667.058 406.79 674.057 404.186L682.846 461.314C673.243 463.593 663.152 465.383 652.572 466.686C641.993 467.988 631.251 468.639 620.346 468.639C599.838 468.639 580.958 465.79 563.705 460.094C546.452 454.397 531.479 445.852 518.783 434.459C506.251 422.903 496.485 408.661 489.486 391.734C482.488 374.645 478.988 354.706 478.988 331.92V247.691C478.988 223.928 482.488 203.095 489.486 185.191C496.648 167.288 506.739 152.314 519.76 140.27C532.781 128.225 548.243 119.192 566.146 113.17C584.05 106.985 603.907 103.893 625.717 103.893C635.32 103.893 644.841 104.625 654.281 106.09C663.884 107.392 673.406 109.182 682.846 111.461L674.057 168.834C667.709 166.393 660.548 164.439 652.572 162.975C644.76 161.51 637.029 160.777 629.379 160.777C617.335 160.777 606.511 162.486 596.908 165.904C587.305 169.16 579.167 174.286 572.494 181.285C565.984 188.121 561.02 196.992 557.602 207.896C554.184 218.801 552.475 231.904 552.475 247.203V331.92C552.475 346.894 554.265 359.589 557.846 370.006C561.426 380.26 566.553 388.479 573.227 394.664C579.9 400.686 587.875 405.081 597.152 407.848C606.43 410.615 616.765 411.998 628.158 411.998ZM634.018 234.02V270.152H437.729V234.02H634.018ZM634.018 301.158V337.291H437.729V301.158H634.018Z" fill="url(#paint0_linear_3_37)"/>
<path d="M287.07 317.504C287.07 315.218 286.718 313.167 286.015 311.35C285.37 309.474 284.139 307.774 282.322 306.25C280.506 304.668 277.956 303.115 274.674 301.591C271.392 300.067 267.142 298.484 261.926 296.843C256.123 294.968 250.614 292.858 245.397 290.513C240.24 288.169 235.668 285.443 231.682 282.337C227.756 279.172 224.649 275.509 222.363 271.348C220.136 267.186 219.022 262.351 219.022 256.841C219.022 251.508 220.195 246.672 222.539 242.335C224.884 237.939 228.166 234.188 232.386 231.082C236.606 227.917 241.588 225.484 247.332 223.785C253.134 222.085 259.493 221.235 266.41 221.235C275.846 221.235 284.081 222.935 291.114 226.334C298.147 229.734 303.598 234.393 307.467 240.313C311.394 246.233 313.357 253.002 313.357 260.622H287.158C287.158 256.871 286.367 253.588 284.784 250.775C283.26 247.903 280.916 245.647 277.751 244.005C274.644 242.364 270.717 241.544 265.97 241.544C261.398 241.544 257.589 242.247 254.541 243.654C251.493 245.002 249.207 246.848 247.683 249.193C246.159 251.478 245.397 254.057 245.397 256.929C245.397 259.098 245.925 261.061 246.98 262.82C248.094 264.578 249.735 266.219 251.903 267.743C254.072 269.267 256.739 270.703 259.904 272.051C263.069 273.399 266.732 274.718 270.893 276.007C277.868 278.117 283.993 280.491 289.268 283.128C294.602 285.766 299.056 288.726 302.631 292.008C306.207 295.29 308.903 299.012 310.72 303.173C312.537 307.335 313.445 312.053 313.445 317.328C313.445 322.896 312.361 327.878 310.192 332.274C308.023 336.67 304.888 340.391 300.785 343.439C296.682 346.487 291.788 348.802 286.103 350.385C280.418 351.967 274.058 352.758 267.025 352.758C260.695 352.758 254.453 351.938 248.299 350.297C242.145 348.597 236.547 346.047 231.507 342.648C226.525 339.248 222.539 334.911 219.55 329.636C216.561 324.361 215.066 318.119 215.066 310.91H241.529C241.529 314.896 242.145 318.266 243.375 321.02C244.606 323.775 246.335 326.002 248.562 327.702C250.848 329.402 253.544 330.633 256.651 331.395C259.816 332.157 263.274 332.538 267.025 332.538C271.597 332.538 275.348 331.893 278.278 330.603C281.267 329.314 283.465 327.526 284.872 325.24C286.337 322.955 287.07 320.376 287.07 317.504ZM405.582 308.536H431.869C431.341 317.152 428.967 324.801 424.747 331.483C420.586 338.164 414.754 343.381 407.252 347.132C399.808 350.883 390.841 352.758 380.35 352.758C372.144 352.758 364.788 351.352 358.282 348.538C351.777 345.666 346.209 341.564 341.578 336.23C337.007 330.896 333.519 324.449 331.116 316.888C328.713 309.328 327.512 300.858 327.512 291.48V282.601C327.512 273.223 328.742 264.754 331.204 257.193C333.724 249.573 337.3 243.097 341.93 237.763C346.619 232.43 352.216 228.327 358.722 225.455C365.228 222.583 372.496 221.147 380.525 221.147C391.193 221.147 400.189 223.081 407.516 226.95C414.901 230.818 420.615 236.152 424.66 242.95C428.762 249.749 431.224 257.486 432.045 266.16H405.67C405.377 261.003 404.351 256.636 402.592 253.061C400.834 249.427 398.167 246.702 394.592 244.885C391.075 243.009 386.387 242.071 380.525 242.071C376.13 242.071 372.291 242.892 369.008 244.533C365.726 246.174 362.971 248.665 360.744 252.006C358.517 255.347 356.847 259.567 355.733 264.666C354.678 269.706 354.15 275.626 354.15 282.425V291.48C354.15 298.103 354.649 303.935 355.645 308.976C356.641 313.958 358.165 318.178 360.217 321.636C362.327 325.035 365.023 327.614 368.305 329.373C371.646 331.072 375.661 331.922 380.35 331.922C385.859 331.922 390.401 331.043 393.977 329.285C397.552 327.526 400.277 324.918 402.153 321.46C404.087 318.002 405.23 313.694 405.582 308.536Z" fill="url(#paint1_linear_3_37)"/>
<path d="M60.4336 399.303C60.4336 398.846 60.3633 398.436 60.2227 398.072C60.0938 397.697 59.8477 397.357 59.4844 397.053C59.1211 396.736 58.6113 396.426 57.9551 396.121C57.2988 395.816 56.4492 395.5 55.4062 395.172C54.2461 394.797 53.1445 394.375 52.1016 393.906C51.0703 393.438 50.1562 392.893 49.3594 392.271C48.5742 391.639 47.9531 390.906 47.4961 390.074C47.0508 389.242 46.8281 388.275 46.8281 387.174C46.8281 386.107 47.0625 385.141 47.5312 384.273C48 383.395 48.6562 382.645 49.5 382.023C50.3438 381.391 51.3398 380.904 52.4883 380.564C53.6484 380.225 54.9199 380.055 56.3027 380.055C58.1895 380.055 59.8359 380.395 61.2422 381.074C62.6484 381.754 63.7383 382.686 64.5117 383.869C65.2969 385.053 65.6895 386.406 65.6895 387.93H60.4512C60.4512 387.18 60.293 386.523 59.9766 385.961C59.6719 385.387 59.2031 384.936 58.5703 384.607C57.9492 384.279 57.1641 384.115 56.2148 384.115C55.3008 384.115 54.5391 384.256 53.9297 384.537C53.3203 384.807 52.8633 385.176 52.5586 385.645C52.2539 386.102 52.1016 386.617 52.1016 387.191C52.1016 387.625 52.207 388.018 52.418 388.369C52.6406 388.721 52.9688 389.049 53.4023 389.354C53.8359 389.658 54.3691 389.945 55.002 390.215C55.6348 390.484 56.3672 390.748 57.1992 391.006C58.5938 391.428 59.8184 391.902 60.873 392.43C61.9395 392.957 62.8301 393.549 63.5449 394.205C64.2598 394.861 64.7988 395.605 65.1621 396.438C65.5254 397.27 65.707 398.213 65.707 399.268C65.707 400.381 65.4902 401.377 65.0566 402.256C64.623 403.135 63.9961 403.879 63.1758 404.488C62.3555 405.098 61.377 405.561 60.2402 405.877C59.1035 406.193 57.832 406.352 56.4258 406.352C55.1602 406.352 53.9121 406.188 52.6816 405.859C51.4512 405.52 50.332 405.01 49.3242 404.33C48.3281 403.65 47.5312 402.783 46.9336 401.729C46.3359 400.674 46.0371 399.426 46.0371 397.984H51.3281C51.3281 398.781 51.4512 399.455 51.6973 400.006C51.9434 400.557 52.2891 401.002 52.7344 401.342C53.1914 401.682 53.7305 401.928 54.3516 402.08C54.9844 402.232 55.6758 402.309 56.4258 402.309C57.3398 402.309 58.0898 402.18 58.6758 401.922C59.2734 401.664 59.7129 401.307 59.9941 400.85C60.2871 400.393 60.4336 399.877 60.4336 399.303ZM74.3203 386.98V406H69.2402V386.98H74.3203ZM68.9238 382.023C68.9238 381.285 69.1816 380.676 69.6973 380.195C70.2129 379.715 70.9043 379.475 71.7715 379.475C72.627 379.475 73.3125 379.715 73.8281 380.195C74.3555 380.676 74.6191 381.285 74.6191 382.023C74.6191 382.762 74.3555 383.371 73.8281 383.852C73.3125 384.332 72.627 384.572 71.7715 384.572C70.9043 384.572 70.2129 384.332 69.6973 383.852C69.1816 383.371 68.9238 382.762 68.9238 382.023ZM83.5664 390.918V406H78.4863V386.98H83.25L83.5664 390.918ZM82.8633 395.822H81.457C81.457 394.498 81.6152 393.279 81.9316 392.166C82.2598 391.041 82.7344 390.068 83.3555 389.248C83.9883 388.416 84.7676 387.771 85.6934 387.314C86.6191 386.857 87.6914 386.629 88.9102 386.629C89.7539 386.629 90.5273 386.758 91.2305 387.016C91.9336 387.262 92.5371 387.654 93.041 388.193C93.5566 388.721 93.9551 389.412 94.2363 390.268C94.5176 391.111 94.6582 392.125 94.6582 393.309V406H89.5957V393.871C89.5957 393.004 89.4785 392.336 89.2441 391.867C89.0098 391.398 88.6758 391.07 88.2422 390.883C87.8203 390.695 87.3105 390.602 86.7129 390.602C86.0566 390.602 85.4824 390.736 84.9902 391.006C84.5098 391.275 84.1113 391.65 83.7949 392.131C83.4785 392.6 83.2441 393.15 83.0918 393.783C82.9395 394.416 82.8633 395.096 82.8633 395.822ZM94.1836 395.242L92.373 395.471C92.373 394.229 92.5254 393.074 92.8301 392.008C93.1465 390.941 93.6094 390.004 94.2188 389.195C94.8398 388.387 95.6074 387.76 96.5215 387.314C97.4355 386.857 98.4902 386.629 99.6855 386.629C100.6 386.629 101.432 386.764 102.182 387.033C102.932 387.291 103.57 387.707 104.098 388.281C104.637 388.844 105.047 389.582 105.328 390.496C105.621 391.41 105.768 392.529 105.768 393.854V406H100.688V393.854C100.688 392.975 100.57 392.307 100.336 391.85C100.113 391.381 99.7852 391.059 99.3516 390.883C98.9297 390.695 98.4258 390.602 97.8398 390.602C97.2305 390.602 96.6973 390.725 96.2402 390.971C95.7832 391.205 95.4023 391.533 95.0977 391.955C94.793 392.377 94.5645 392.869 94.4121 393.432C94.2598 393.982 94.1836 394.586 94.1836 395.242ZM120.938 401.447V386.98H126V406H121.236L120.938 401.447ZM121.5 397.545L122.994 397.51C122.994 398.775 122.848 399.953 122.555 401.043C122.262 402.121 121.822 403.059 121.236 403.855C120.65 404.641 119.912 405.256 119.021 405.701C118.131 406.135 117.082 406.352 115.875 406.352C114.949 406.352 114.094 406.223 113.309 405.965C112.535 405.695 111.867 405.279 111.305 404.717C110.754 404.143 110.32 403.41 110.004 402.52C109.699 401.617 109.547 400.533 109.547 399.268V386.98H114.609V399.303C114.609 399.865 114.674 400.34 114.803 400.727C114.943 401.113 115.137 401.43 115.383 401.676C115.629 401.922 115.916 402.098 116.244 402.203C116.584 402.309 116.959 402.361 117.369 402.361C118.412 402.361 119.232 402.15 119.83 401.729C120.439 401.307 120.867 400.732 121.113 400.006C121.371 399.268 121.5 398.447 121.5 397.545ZM135.211 379V406H130.131V379H135.211ZM149.66 401.711V393.238C149.66 392.629 149.561 392.107 149.361 391.674C149.162 391.229 148.852 390.883 148.43 390.637C148.02 390.391 147.486 390.268 146.83 390.268C146.268 390.268 145.781 390.367 145.371 390.566C144.961 390.754 144.645 391.029 144.422 391.393C144.199 391.744 144.088 392.16 144.088 392.641H139.025C139.025 391.832 139.213 391.064 139.588 390.338C139.963 389.611 140.508 388.973 141.223 388.422C141.938 387.859 142.787 387.42 143.771 387.104C144.768 386.787 145.881 386.629 147.111 386.629C148.588 386.629 149.9 386.875 151.049 387.367C152.197 387.859 153.1 388.598 153.756 389.582C154.424 390.566 154.758 391.797 154.758 393.273V401.412C154.758 402.455 154.822 403.311 154.951 403.979C155.08 404.635 155.268 405.209 155.514 405.701V406H150.398C150.152 405.484 149.965 404.84 149.836 404.066C149.719 403.281 149.66 402.496 149.66 401.711ZM150.328 394.416L150.363 397.281H147.533C146.865 397.281 146.285 397.357 145.793 397.51C145.301 397.662 144.896 397.879 144.58 398.16C144.264 398.43 144.029 398.746 143.877 399.109C143.736 399.473 143.666 399.871 143.666 400.305C143.666 400.738 143.766 401.131 143.965 401.482C144.164 401.822 144.451 402.092 144.826 402.291C145.201 402.479 145.641 402.572 146.145 402.572C146.906 402.572 147.568 402.42 148.131 402.115C148.693 401.811 149.127 401.436 149.432 400.99C149.748 400.545 149.912 400.123 149.924 399.725L151.26 401.869C151.072 402.35 150.814 402.848 150.486 403.363C150.17 403.879 149.766 404.365 149.273 404.822C148.781 405.268 148.189 405.637 147.498 405.93C146.807 406.211 145.986 406.352 145.037 406.352C143.83 406.352 142.734 406.111 141.75 405.631C140.777 405.139 140.004 404.465 139.43 403.609C138.867 402.742 138.586 401.758 138.586 400.656C138.586 399.66 138.773 398.775 139.148 398.002C139.523 397.229 140.074 396.578 140.801 396.051C141.539 395.512 142.459 395.107 143.561 394.838C144.662 394.557 145.939 394.416 147.393 394.416H150.328ZM167.977 386.98V390.566H156.902V386.98H167.977ZM159.645 382.287H164.707V400.27C164.707 400.82 164.777 401.242 164.918 401.535C165.07 401.828 165.293 402.033 165.586 402.15C165.879 402.256 166.248 402.309 166.693 402.309C167.01 402.309 167.291 402.297 167.537 402.273C167.795 402.238 168.012 402.203 168.188 402.168L168.205 405.895C167.771 406.035 167.303 406.146 166.799 406.229C166.295 406.311 165.738 406.352 165.129 406.352C164.016 406.352 163.043 406.17 162.211 405.807C161.391 405.432 160.758 404.834 160.312 404.014C159.867 403.193 159.645 402.115 159.645 400.779V382.287ZM179.613 406.352C178.137 406.352 176.812 406.117 175.641 405.648C174.469 405.168 173.473 404.506 172.652 403.662C171.844 402.818 171.223 401.84 170.789 400.727C170.355 399.602 170.139 398.406 170.139 397.141V396.438C170.139 394.996 170.344 393.678 170.754 392.482C171.164 391.287 171.75 390.25 172.512 389.371C173.285 388.492 174.223 387.818 175.324 387.35C176.426 386.869 177.668 386.629 179.051 386.629C180.398 386.629 181.594 386.852 182.637 387.297C183.68 387.742 184.553 388.375 185.256 389.195C185.971 390.016 186.51 391 186.873 392.148C187.236 393.285 187.418 394.551 187.418 395.945V398.055H172.301V394.68H182.443V394.293C182.443 393.59 182.314 392.963 182.057 392.412C181.811 391.85 181.436 391.404 180.932 391.076C180.428 390.748 179.783 390.584 178.998 390.584C178.33 390.584 177.756 390.73 177.275 391.023C176.795 391.316 176.402 391.727 176.098 392.254C175.805 392.781 175.582 393.402 175.43 394.117C175.289 394.82 175.219 395.594 175.219 396.438V397.141C175.219 397.902 175.324 398.605 175.535 399.25C175.758 399.895 176.068 400.451 176.467 400.92C176.877 401.389 177.369 401.752 177.943 402.01C178.529 402.268 179.191 402.396 179.93 402.396C180.844 402.396 181.693 402.221 182.479 401.869C183.275 401.506 183.961 400.961 184.535 400.234L186.996 402.906C186.598 403.48 186.053 404.031 185.361 404.559C184.682 405.086 183.861 405.52 182.9 405.859C181.939 406.188 180.844 406.352 179.613 406.352ZM201.551 401.447V386.98H206.613V406H201.85L201.551 401.447ZM202.113 397.545L203.607 397.51C203.607 398.775 203.461 399.953 203.168 401.043C202.875 402.121 202.436 403.059 201.85 403.855C201.264 404.641 200.525 405.256 199.635 405.701C198.744 406.135 197.695 406.352 196.488 406.352C195.562 406.352 194.707 406.223 193.922 405.965C193.148 405.695 192.48 405.279 191.918 404.717C191.367 404.143 190.934 403.41 190.617 402.52C190.312 401.617 190.16 400.533 190.16 399.268V386.98H195.223V399.303C195.223 399.865 195.287 400.34 195.416 400.727C195.557 401.113 195.75 401.43 195.996 401.676C196.242 401.922 196.529 402.098 196.857 402.203C197.197 402.309 197.572 402.361 197.982 402.361C199.025 402.361 199.846 402.15 200.443 401.729C201.053 401.307 201.48 400.732 201.727 400.006C201.984 399.268 202.113 398.447 202.113 397.545ZM215.543 391.129V406H210.48V386.98H215.244L215.543 391.129ZM221.273 386.857L221.186 391.551C220.939 391.516 220.641 391.486 220.289 391.463C219.949 391.428 219.639 391.41 219.357 391.41C218.643 391.41 218.021 391.504 217.494 391.691C216.979 391.867 216.545 392.131 216.193 392.482C215.854 392.834 215.596 393.262 215.42 393.766C215.256 394.27 215.162 394.844 215.139 395.488L214.119 395.172C214.119 393.941 214.242 392.811 214.488 391.779C214.734 390.736 215.092 389.828 215.561 389.055C216.041 388.281 216.627 387.684 217.318 387.262C218.01 386.84 218.801 386.629 219.691 386.629C219.973 386.629 220.26 386.652 220.553 386.699C220.846 386.734 221.086 386.787 221.273 386.857ZM243.861 401.852V379H248.959V406H244.371L243.861 401.852ZM231.838 396.719V396.35C231.838 394.896 232.002 393.578 232.33 392.395C232.658 391.199 233.139 390.174 233.771 389.318C234.404 388.463 235.184 387.801 236.109 387.332C237.035 386.863 238.09 386.629 239.273 386.629C240.387 386.629 241.359 386.863 242.191 387.332C243.035 387.801 243.75 388.469 244.336 389.336C244.934 390.191 245.414 391.205 245.777 392.377C246.141 393.537 246.404 394.809 246.568 396.191V397C246.404 398.324 246.141 399.555 245.777 400.691C245.414 401.828 244.934 402.824 244.336 403.68C243.75 404.523 243.035 405.18 242.191 405.648C241.348 406.117 240.363 406.352 239.238 406.352C238.055 406.352 237 406.111 236.074 405.631C235.16 405.15 234.387 404.477 233.754 403.609C233.133 402.742 232.658 401.723 232.33 400.551C232.002 399.379 231.838 398.102 231.838 396.719ZM236.9 396.35V396.719C236.9 397.504 236.959 398.236 237.076 398.916C237.205 399.596 237.41 400.199 237.691 400.727C237.984 401.242 238.359 401.646 238.816 401.939C239.285 402.221 239.854 402.361 240.521 402.361C241.389 402.361 242.104 402.168 242.666 401.781C243.229 401.383 243.656 400.838 243.949 400.146C244.254 399.455 244.43 398.658 244.477 397.756V395.453C244.441 394.715 244.336 394.053 244.16 393.467C243.996 392.869 243.75 392.359 243.422 391.938C243.105 391.516 242.707 391.188 242.227 390.953C241.758 390.719 241.201 390.602 240.557 390.602C239.9 390.602 239.338 390.754 238.869 391.059C238.4 391.352 238.02 391.756 237.727 392.271C237.445 392.787 237.234 393.396 237.094 394.1C236.965 394.791 236.9 395.541 236.9 396.35ZM261.668 406.352C260.191 406.352 258.867 406.117 257.695 405.648C256.523 405.168 255.527 404.506 254.707 403.662C253.898 402.818 253.277 401.84 252.844 400.727C252.41 399.602 252.193 398.406 252.193 397.141V396.438C252.193 394.996 252.398 393.678 252.809 392.482C253.219 391.287 253.805 390.25 254.566 389.371C255.34 388.492 256.277 387.818 257.379 387.35C258.48 386.869 259.723 386.629 261.105 386.629C262.453 386.629 263.648 386.852 264.691 387.297C265.734 387.742 266.607 388.375 267.311 389.195C268.025 390.016 268.564 391 268.928 392.148C269.291 393.285 269.473 394.551 269.473 395.945V398.055H254.355V394.68H264.498V394.293C264.498 393.59 264.369 392.963 264.111 392.412C263.865 391.85 263.49 391.404 262.986 391.076C262.482 390.748 261.838 390.584 261.053 390.584C260.385 390.584 259.811 390.73 259.33 391.023C258.85 391.316 258.457 391.727 258.152 392.254C257.859 392.781 257.637 393.402 257.484 394.117C257.344 394.82 257.273 395.594 257.273 396.438V397.141C257.273 397.902 257.379 398.605 257.59 399.25C257.812 399.895 258.123 400.451 258.521 400.92C258.932 401.389 259.424 401.752 259.998 402.01C260.584 402.268 261.246 402.396 261.984 402.396C262.898 402.396 263.748 402.221 264.533 401.869C265.33 401.506 266.016 400.961 266.59 400.234L269.051 402.906C268.652 403.48 268.107 404.031 267.416 404.559C266.736 405.086 265.916 405.52 264.955 405.859C263.994 406.188 262.898 406.352 261.668 406.352ZM296.473 397.51H301.729C301.623 399.232 301.148 400.762 300.305 402.098C299.473 403.434 298.307 404.477 296.807 405.227C295.318 405.977 293.525 406.352 291.428 406.352C289.787 406.352 288.316 406.07 287.016 405.508C285.715 404.934 284.602 404.113 283.676 403.047C282.762 401.98 282.064 400.691 281.584 399.18C281.104 397.668 280.863 395.975 280.863 394.1V392.324C280.863 390.449 281.109 388.756 281.602 387.244C282.105 385.721 282.82 384.426 283.746 383.359C284.684 382.293 285.803 381.473 287.104 380.898C288.404 380.324 289.857 380.037 291.463 380.037C293.596 380.037 295.395 380.424 296.859 381.197C298.336 381.971 299.479 383.037 300.287 384.396C301.107 385.756 301.6 387.303 301.764 389.037H296.49C296.432 388.006 296.227 387.133 295.875 386.418C295.523 385.691 294.99 385.146 294.275 384.783C293.572 384.408 292.635 384.221 291.463 384.221C290.584 384.221 289.816 384.385 289.16 384.713C288.504 385.041 287.953 385.539 287.508 386.207C287.062 386.875 286.729 387.719 286.506 388.738C286.295 389.746 286.189 390.93 286.189 392.289V394.1C286.189 395.424 286.289 396.59 286.488 397.598C286.688 398.594 286.992 399.438 287.402 400.129C287.824 400.809 288.363 401.324 289.02 401.676C289.688 402.016 290.49 402.186 291.428 402.186C292.529 402.186 293.438 402.01 294.152 401.658C294.867 401.307 295.412 400.785 295.787 400.094C296.174 399.402 296.402 398.541 296.473 397.51ZM309.938 391.129V406H304.875V386.98H309.639L309.938 391.129ZM315.668 386.857L315.58 391.551C315.334 391.516 315.035 391.486 314.684 391.463C314.344 391.428 314.033 391.41 313.752 391.41C313.037 391.41 312.416 391.504 311.889 391.691C311.373 391.867 310.939 392.131 310.588 392.482C310.248 392.834 309.99 393.262 309.814 393.766C309.65 394.27 309.557 394.844 309.533 395.488L308.514 395.172C308.514 393.941 308.637 392.811 308.883 391.779C309.129 390.736 309.486 389.828 309.955 389.055C310.436 388.281 311.021 387.684 311.713 387.262C312.404 386.84 313.195 386.629 314.086 386.629C314.367 386.629 314.654 386.652 314.947 386.699C315.24 386.734 315.48 386.787 315.668 386.857ZM326.461 406.352C324.984 406.352 323.66 406.117 322.488 405.648C321.316 405.168 320.32 404.506 319.5 403.662C318.691 402.818 318.07 401.84 317.637 400.727C317.203 399.602 316.986 398.406 316.986 397.141V396.438C316.986 394.996 317.191 393.678 317.602 392.482C318.012 391.287 318.598 390.25 319.359 389.371C320.133 388.492 321.07 387.818 322.172 387.35C323.273 386.869 324.516 386.629 325.898 386.629C327.246 386.629 328.441 386.852 329.484 387.297C330.527 387.742 331.4 388.375 332.104 389.195C332.818 390.016 333.357 391 333.721 392.148C334.084 393.285 334.266 394.551 334.266 395.945V398.055H319.148V394.68H329.291V394.293C329.291 393.59 329.162 392.963 328.904 392.412C328.658 391.85 328.283 391.404 327.779 391.076C327.275 390.748 326.631 390.584 325.846 390.584C325.178 390.584 324.604 390.73 324.123 391.023C323.643 391.316 323.25 391.727 322.945 392.254C322.652 392.781 322.43 393.402 322.277 394.117C322.137 394.82 322.066 395.594 322.066 396.438V397.141C322.066 397.902 322.172 398.605 322.383 399.25C322.605 399.895 322.916 400.451 323.314 400.92C323.725 401.389 324.217 401.752 324.791 402.01C325.377 402.268 326.039 402.396 326.777 402.396C327.691 402.396 328.541 402.221 329.326 401.869C330.123 401.506 330.809 400.961 331.383 400.234L333.844 402.906C333.445 403.48 332.9 404.031 332.209 404.559C331.529 405.086 330.709 405.52 329.748 405.859C328.787 406.188 327.691 406.352 326.461 406.352ZM322.893 384.396L326.338 378.982H331.84L327.006 384.396H322.893ZM347.414 401.711V393.238C347.414 392.629 347.314 392.107 347.115 391.674C346.916 391.229 346.605 390.883 346.184 390.637C345.773 390.391 345.24 390.268 344.584 390.268C344.021 390.268 343.535 390.367 343.125 390.566C342.715 390.754 342.398 391.029 342.176 391.393C341.953 391.744 341.842 392.16 341.842 392.641H336.779C336.779 391.832 336.967 391.064 337.342 390.338C337.717 389.611 338.262 388.973 338.977 388.422C339.691 387.859 340.541 387.42 341.525 387.104C342.521 386.787 343.635 386.629 344.865 386.629C346.342 386.629 347.654 386.875 348.803 387.367C349.951 387.859 350.854 388.598 351.51 389.582C352.178 390.566 352.512 391.797 352.512 393.273V401.412C352.512 402.455 352.576 403.311 352.705 403.979C352.834 404.635 353.021 405.209 353.268 405.701V406H348.152C347.906 405.484 347.719 404.84 347.59 404.066C347.473 403.281 347.414 402.496 347.414 401.711ZM348.082 394.416L348.117 397.281H345.287C344.619 397.281 344.039 397.357 343.547 397.51C343.055 397.662 342.65 397.879 342.334 398.16C342.018 398.43 341.783 398.746 341.631 399.109C341.49 399.473 341.42 399.871 341.42 400.305C341.42 400.738 341.52 401.131 341.719 401.482C341.918 401.822 342.205 402.092 342.58 402.291C342.955 402.479 343.395 402.572 343.898 402.572C344.66 402.572 345.322 402.42 345.885 402.115C346.447 401.811 346.881 401.436 347.186 400.99C347.502 400.545 347.666 400.123 347.678 399.725L349.014 401.869C348.826 402.35 348.568 402.848 348.24 403.363C347.924 403.879 347.52 404.365 347.027 404.822C346.535 405.268 345.943 405.637 345.252 405.93C344.561 406.211 343.74 406.352 342.791 406.352C341.584 406.352 340.488 406.111 339.504 405.631C338.531 405.139 337.758 404.465 337.184 403.609C336.621 402.742 336.34 401.758 336.34 400.656C336.34 399.66 336.527 398.775 336.902 398.002C337.277 397.229 337.828 396.578 338.555 396.051C339.293 395.512 340.213 395.107 341.314 394.838C342.416 394.557 343.693 394.416 345.146 394.416H348.082ZM365.73 386.98V390.566H354.656V386.98H365.73ZM357.398 382.287H362.461V400.27C362.461 400.82 362.531 401.242 362.672 401.535C362.824 401.828 363.047 402.033 363.34 402.15C363.633 402.256 364.002 402.309 364.447 402.309C364.764 402.309 365.045 402.297 365.291 402.273C365.549 402.238 365.766 402.203 365.941 402.168L365.959 405.895C365.525 406.035 365.057 406.146 364.553 406.229C364.049 406.311 363.492 406.352 362.883 406.352C361.77 406.352 360.797 406.17 359.965 405.807C359.145 405.432 358.512 404.834 358.066 404.014C357.621 403.193 357.398 402.115 357.398 400.779V382.287ZM373.957 386.98V406H368.877V386.98H373.957ZM368.561 382.023C368.561 381.285 368.818 380.676 369.334 380.195C369.85 379.715 370.541 379.475 371.408 379.475C372.264 379.475 372.949 379.715 373.465 380.195C373.992 380.676 374.256 381.285 374.256 382.023C374.256 382.762 373.992 383.371 373.465 383.852C372.949 384.332 372.264 384.572 371.408 384.572C370.541 384.572 369.85 384.332 369.334 383.852C368.818 383.371 368.561 382.762 368.561 382.023ZM377.332 396.684V396.314C377.332 394.92 377.531 393.637 377.93 392.465C378.328 391.281 378.908 390.256 379.67 389.389C380.432 388.521 381.369 387.848 382.482 387.367C383.596 386.875 384.873 386.629 386.314 386.629C387.756 386.629 389.039 386.875 390.164 387.367C391.289 387.848 392.232 388.521 392.994 389.389C393.768 390.256 394.354 391.281 394.752 392.465C395.15 393.637 395.35 394.92 395.35 396.314V396.684C395.35 398.066 395.15 399.35 394.752 400.533C394.354 401.705 393.768 402.73 392.994 403.609C392.232 404.477 391.295 405.15 390.182 405.631C389.068 406.111 387.791 406.352 386.35 406.352C384.908 406.352 383.625 406.111 382.5 405.631C381.387 405.15 380.443 404.477 379.67 403.609C378.908 402.73 378.328 401.705 377.93 400.533C377.531 399.35 377.332 398.066 377.332 396.684ZM382.395 396.314V396.684C382.395 397.48 382.465 398.225 382.605 398.916C382.746 399.607 382.969 400.217 383.273 400.744C383.59 401.26 384 401.664 384.504 401.957C385.008 402.25 385.623 402.396 386.35 402.396C387.053 402.396 387.656 402.25 388.16 401.957C388.664 401.664 389.068 401.26 389.373 400.744C389.678 400.217 389.9 399.607 390.041 398.916C390.193 398.225 390.27 397.48 390.27 396.684V396.314C390.27 395.541 390.193 394.814 390.041 394.135C389.9 393.443 389.672 392.834 389.355 392.307C389.051 391.768 388.646 391.346 388.143 391.041C387.639 390.736 387.029 390.584 386.314 390.584C385.6 390.584 384.99 390.736 384.486 391.041C383.994 391.346 383.59 391.768 383.273 392.307C382.969 392.834 382.746 393.443 382.605 394.135C382.465 394.814 382.395 395.541 382.395 396.314ZM403.418 391.041V406H398.355V386.98H403.102L403.418 391.041ZM402.68 395.822H401.309C401.309 394.416 401.49 393.15 401.854 392.025C402.217 390.889 402.727 389.922 403.383 389.125C404.039 388.316 404.818 387.701 405.721 387.279C406.635 386.846 407.654 386.629 408.779 386.629C409.67 386.629 410.484 386.758 411.223 387.016C411.961 387.273 412.594 387.684 413.121 388.246C413.66 388.809 414.07 389.553 414.352 390.479C414.645 391.404 414.791 392.535 414.791 393.871V406H409.693V393.854C409.693 393.01 409.576 392.354 409.342 391.885C409.107 391.416 408.762 391.088 408.305 390.9C407.859 390.701 407.309 390.602 406.652 390.602C405.973 390.602 405.381 390.736 404.877 391.006C404.385 391.275 403.975 391.65 403.646 392.131C403.33 392.6 403.09 393.15 402.926 393.783C402.762 394.416 402.68 395.096 402.68 395.822ZM456.768 401.852V379H461.865V406H457.277L456.768 401.852ZM444.744 396.719V396.35C444.744 394.896 444.908 393.578 445.236 392.395C445.564 391.199 446.045 390.174 446.678 389.318C447.311 388.463 448.09 387.801 449.016 387.332C449.941 386.863 450.996 386.629 452.18 386.629C453.293 386.629 454.266 386.863 455.098 387.332C455.941 387.801 456.656 388.469 457.242 389.336C457.84 390.191 458.32 391.205 458.684 392.377C459.047 393.537 459.311 394.809 459.475 396.191V397C459.311 398.324 459.047 399.555 458.684 400.691C458.32 401.828 457.84 402.824 457.242 403.68C456.656 404.523 455.941 405.18 455.098 405.648C454.254 406.117 453.27 406.352 452.145 406.352C450.961 406.352 449.906 406.111 448.98 405.631C448.066 405.15 447.293 404.477 446.66 403.609C446.039 402.742 445.564 401.723 445.236 400.551C444.908 399.379 444.744 398.102 444.744 396.719ZM449.807 396.35V396.719C449.807 397.504 449.865 398.236 449.982 398.916C450.111 399.596 450.316 400.199 450.598 400.727C450.891 401.242 451.266 401.646 451.723 401.939C452.191 402.221 452.76 402.361 453.428 402.361C454.295 402.361 455.01 402.168 455.572 401.781C456.135 401.383 456.562 400.838 456.855 400.146C457.16 399.455 457.336 398.658 457.383 397.756V395.453C457.348 394.715 457.242 394.053 457.066 393.467C456.902 392.869 456.656 392.359 456.328 391.938C456.012 391.516 455.613 391.188 455.133 390.953C454.664 390.719 454.107 390.602 453.463 390.602C452.807 390.602 452.244 390.754 451.775 391.059C451.307 391.352 450.926 391.756 450.633 392.271C450.352 392.787 450.141 393.396 450 394.1C449.871 394.791 449.807 395.541 449.807 396.35ZM470.443 379V381.672C470.443 382.434 470.297 383.219 470.004 384.027C469.723 384.836 469.342 385.604 468.861 386.33C468.381 387.045 467.854 387.654 467.279 388.158L464.906 386.787C465.34 386.096 465.709 385.346 466.014 384.537C466.318 383.717 466.471 382.768 466.471 381.689V379H470.443ZM696.539 442.055V462H689.789V436.641H696.117L696.539 442.055ZM695.555 448.43H693.727C693.727 446.555 693.969 444.867 694.453 443.367C694.938 441.852 695.617 440.562 696.492 439.5C697.367 438.422 698.406 437.602 699.609 437.039C700.828 436.461 702.188 436.172 703.688 436.172C704.875 436.172 705.961 436.344 706.945 436.688C707.93 437.031 708.773 437.578 709.477 438.328C710.195 439.078 710.742 440.07 711.117 441.305C711.508 442.539 711.703 444.047 711.703 445.828V462H704.906V445.805C704.906 444.68 704.75 443.805 704.438 443.18C704.125 442.555 703.664 442.117 703.055 441.867C702.461 441.602 701.727 441.469 700.852 441.469C699.945 441.469 699.156 441.648 698.484 442.008C697.828 442.367 697.281 442.867 696.844 443.508C696.422 444.133 696.102 444.867 695.883 445.711C695.664 446.555 695.555 447.461 695.555 448.43ZM729.258 436.641V441.422H714.492V436.641H729.258ZM718.148 430.383H724.898V454.359C724.898 455.094 724.992 455.656 725.18 456.047C725.383 456.438 725.68 456.711 726.07 456.867C726.461 457.008 726.953 457.078 727.547 457.078C727.969 457.078 728.344 457.062 728.672 457.031C729.016 456.984 729.305 456.938 729.539 456.891L729.562 461.859C728.984 462.047 728.359 462.195 727.688 462.305C727.016 462.414 726.273 462.469 725.461 462.469C723.977 462.469 722.68 462.227 721.57 461.742C720.477 461.242 719.633 460.445 719.039 459.352C718.445 458.258 718.148 456.82 718.148 455.039V430.383ZM739.852 442.172V462H733.102V436.641H739.453L739.852 442.172ZM747.492 436.477L747.375 442.734C747.047 442.688 746.648 442.648 746.18 442.617C745.727 442.57 745.312 442.547 744.938 442.547C743.984 442.547 743.156 442.672 742.453 442.922C741.766 443.156 741.188 443.508 740.719 443.977C740.266 444.445 739.922 445.016 739.688 445.688C739.469 446.359 739.344 447.125 739.312 447.984L737.953 447.562C737.953 445.922 738.117 444.414 738.445 443.039C738.773 441.648 739.25 440.438 739.875 439.406C740.516 438.375 741.297 437.578 742.219 437.016C743.141 436.453 744.195 436.172 745.383 436.172C745.758 436.172 746.141 436.203 746.531 436.266C746.922 436.312 747.242 436.383 747.492 436.477ZM761.883 462.469C759.914 462.469 758.148 462.156 756.586 461.531C755.023 460.891 753.695 460.008 752.602 458.883C751.523 457.758 750.695 456.453 750.117 454.969C749.539 453.469 749.25 451.875 749.25 450.188V449.25C749.25 447.328 749.523 445.57 750.07 443.977C750.617 442.383 751.398 441 752.414 439.828C753.445 438.656 754.695 437.758 756.164 437.133C757.633 436.492 759.289 436.172 761.133 436.172C762.93 436.172 764.523 436.469 765.914 437.062C767.305 437.656 768.469 438.5 769.406 439.594C770.359 440.688 771.078 442 771.562 443.531C772.047 445.047 772.289 446.734 772.289 448.594V451.406H752.133V446.906H765.656V446.391C765.656 445.453 765.484 444.617 765.141 443.883C764.812 443.133 764.312 442.539 763.641 442.102C762.969 441.664 762.109 441.445 761.062 441.445C760.172 441.445 759.406 441.641 758.766 442.031C758.125 442.422 757.602 442.969 757.195 443.672C756.805 444.375 756.508 445.203 756.305 446.156C756.117 447.094 756.023 448.125 756.023 449.25V450.188C756.023 451.203 756.164 452.141 756.445 453C756.742 453.859 757.156 454.602 757.688 455.227C758.234 455.852 758.891 456.336 759.656 456.68C760.438 457.023 761.32 457.195 762.305 457.195C763.523 457.195 764.656 456.961 765.703 456.492C766.766 456.008 767.68 455.281 768.445 454.312L771.727 457.875C771.195 458.641 770.469 459.375 769.547 460.078C768.641 460.781 767.547 461.359 766.266 461.812C764.984 462.25 763.523 462.469 761.883 462.469ZM782.883 441.516V471.75H776.133V436.641H782.391L782.883 441.516ZM798.938 449.039V449.531C798.938 451.375 798.719 453.086 798.281 454.664C797.859 456.242 797.234 457.617 796.406 458.789C795.578 459.945 794.547 460.852 793.312 461.508C792.094 462.148 790.688 462.469 789.094 462.469C787.547 462.469 786.203 462.156 785.062 461.531C783.922 460.906 782.961 460.031 782.18 458.906C781.414 457.766 780.797 456.445 780.328 454.945C779.859 453.445 779.5 451.836 779.25 450.117V448.828C779.5 446.984 779.859 445.297 780.328 443.766C780.797 442.219 781.414 440.883 782.18 439.758C782.961 438.617 783.914 437.734 785.039 437.109C786.18 436.484 787.516 436.172 789.047 436.172C790.656 436.172 792.07 436.477 793.289 437.086C794.523 437.695 795.555 438.57 796.383 439.711C797.227 440.852 797.859 442.211 798.281 443.789C798.719 445.367 798.938 447.117 798.938 449.039ZM792.164 449.531V449.039C792.164 447.961 792.07 446.969 791.883 446.062C791.711 445.141 791.43 444.336 791.039 443.648C790.664 442.961 790.164 442.43 789.539 442.055C788.93 441.664 788.188 441.469 787.312 441.469C786.391 441.469 785.602 441.617 784.945 441.914C784.305 442.211 783.781 442.641 783.375 443.203C782.969 443.766 782.664 444.438 782.461 445.219C782.258 446 782.133 446.883 782.086 447.867V451.125C782.164 452.281 782.383 453.32 782.742 454.242C783.102 455.148 783.656 455.867 784.406 456.398C785.156 456.93 786.141 457.195 787.359 457.195C788.25 457.195 789 457 789.609 456.609C790.219 456.203 790.711 455.648 791.086 454.945C791.477 454.242 791.75 453.43 791.906 452.508C792.078 451.586 792.164 450.594 792.164 449.531ZM809.883 442.172V462H803.133V436.641H809.484L809.883 442.172ZM817.523 436.477L817.406 442.734C817.078 442.688 816.68 442.648 816.211 442.617C815.758 442.57 815.344 442.547 814.969 442.547C814.016 442.547 813.188 442.672 812.484 442.922C811.797 443.156 811.219 443.508 810.75 443.977C810.297 444.445 809.953 445.016 809.719 445.688C809.5 446.359 809.375 447.125 809.344 447.984L807.984 447.562C807.984 445.922 808.148 444.414 808.477 443.039C808.805 441.648 809.281 440.438 809.906 439.406C810.547 438.375 811.328 437.578 812.25 437.016C813.172 436.453 814.227 436.172 815.414 436.172C815.789 436.172 816.172 436.203 816.562 436.266C816.953 436.312 817.273 436.383 817.523 436.477ZM827.836 436.641V462H821.062V436.641H827.836ZM820.641 430.031C820.641 429.047 820.984 428.234 821.672 427.594C822.359 426.953 823.281 426.633 824.438 426.633C825.578 426.633 826.492 426.953 827.18 427.594C827.883 428.234 828.234 429.047 828.234 430.031C828.234 431.016 827.883 431.828 827.18 432.469C826.492 433.109 825.578 433.43 824.438 433.43C823.281 433.43 822.359 433.109 821.672 432.469C820.984 431.828 820.641 431.016 820.641 430.031ZM847.125 454.992C847.125 454.508 846.984 454.07 846.703 453.68C846.422 453.289 845.898 452.93 845.133 452.602C844.383 452.258 843.297 451.945 841.875 451.664C840.594 451.383 839.398 451.031 838.289 450.609C837.195 450.172 836.242 449.648 835.43 449.039C834.633 448.43 834.008 447.711 833.555 446.883C833.102 446.039 832.875 445.078 832.875 444C832.875 442.938 833.102 441.938 833.555 441C834.023 440.062 834.688 439.234 835.547 438.516C836.422 437.781 837.484 437.211 838.734 436.805C840 436.383 841.422 436.172 843 436.172C845.203 436.172 847.094 436.523 848.672 437.227C850.266 437.93 851.484 438.898 852.328 440.133C853.188 441.352 853.617 442.742 853.617 444.305H846.867C846.867 443.648 846.727 443.062 846.445 442.547C846.18 442.016 845.758 441.602 845.18 441.305C844.617 440.992 843.883 440.836 842.977 440.836C842.227 440.836 841.578 440.969 841.031 441.234C840.484 441.484 840.062 441.828 839.766 442.266C839.484 442.688 839.344 443.156 839.344 443.672C839.344 444.062 839.422 444.414 839.578 444.727C839.75 445.023 840.023 445.297 840.398 445.547C840.773 445.797 841.258 446.031 841.852 446.25C842.461 446.453 843.211 446.641 844.102 446.812C845.93 447.188 847.562 447.68 849 448.289C850.438 448.883 851.578 449.695 852.422 450.727C853.266 451.742 853.688 453.078 853.688 454.734C853.688 455.859 853.438 456.891 852.938 457.828C852.438 458.766 851.719 459.586 850.781 460.289C849.844 460.977 848.719 461.516 847.406 461.906C846.109 462.281 844.648 462.469 843.023 462.469C840.664 462.469 838.664 462.047 837.023 461.203C835.398 460.359 834.164 459.289 833.32 457.992C832.492 456.68 832.078 455.336 832.078 453.961H838.477C838.508 454.883 838.742 455.625 839.18 456.188C839.633 456.75 840.203 457.156 840.891 457.406C841.594 457.656 842.352 457.781 843.164 457.781C844.039 457.781 844.766 457.664 845.344 457.43C845.922 457.18 846.359 456.852 846.656 456.445C846.969 456.023 847.125 455.539 847.125 454.992ZM869.742 462.469C867.773 462.469 866.008 462.156 864.445 461.531C862.883 460.891 861.555 460.008 860.461 458.883C859.383 457.758 858.555 456.453 857.977 454.969C857.398 453.469 857.109 451.875 857.109 450.188V449.25C857.109 447.328 857.383 445.57 857.93 443.977C858.477 442.383 859.258 441 860.273 439.828C861.305 438.656 862.555 437.758 864.023 437.133C865.492 436.492 867.148 436.172 868.992 436.172C870.789 436.172 872.383 436.469 873.773 437.062C875.164 437.656 876.328 438.5 877.266 439.594C878.219 440.688 878.938 442 879.422 443.531C879.906 445.047 880.148 446.734 880.148 448.594V451.406H859.992V446.906H873.516V446.391C873.516 445.453 873.344 444.617 873 443.883C872.672 443.133 872.172 442.539 871.5 442.102C870.828 441.664 869.969 441.445 868.922 441.445C868.031 441.445 867.266 441.641 866.625 442.031C865.984 442.422 865.461 442.969 865.055 443.672C864.664 444.375 864.367 445.203 864.164 446.156C863.977 447.094 863.883 448.125 863.883 449.25V450.188C863.883 451.203 864.023 452.141 864.305 453C864.602 453.859 865.016 454.602 865.547 455.227C866.094 455.852 866.75 456.336 867.516 456.68C868.297 457.023 869.18 457.195 870.164 457.195C871.383 457.195 872.516 456.961 873.562 456.492C874.625 456.008 875.539 455.281 876.305 454.312L879.586 457.875C879.055 458.641 878.328 459.375 877.406 460.078C876.5 460.781 875.406 461.359 874.125 461.812C872.844 462.25 871.383 462.469 869.742 462.469Z" fill="url(#paint2_linear_3_37)"/>
<line x1="192" y1="367.5" x2="640" y2="367.5" stroke="#9441FF" stroke-width="3"/>
<defs>
<linearGradient id="paint0_linear_3_37" x1="571.465" y1="156.322" x2="1352.28" y2="125.864" gradientUnits="userSpaceOnUse">
<stop stop-color="#110224" stop-opacity="0.47"/>
<stop offset="0.401042" stop-color="#EE1CC0" stop-opacity="0.51"/>
<stop offset="1" stop-color="#FF000F" stop-opacity="0.25"/>
</linearGradient>
<linearGradient id="paint1_linear_3_37" x1="370.338" y1="293.047" x2="1179.16" y2="246.11" gradientUnits="userSpaceOnUse">
<stop stop-color="#110224"/>
<stop offset="0.401042" stop-color="#EE1CC0" stop-opacity="0.51"/>
<stop offset="1" stop-color="#FF000F" stop-opacity="0.25"/>
</linearGradient>
<linearGradient id="paint2_linear_3_37" x1="172.739" y1="478.047" x2="1038.29" y2="424.269" gradientUnits="userSpaceOnUse">
<stop stop-color="#110224"/>
<stop offset="0.401042" stop-color="#EE1CC0" stop-opacity="0.51"/>
<stop offset="1" stop-color="#FF000F" stop-opacity="0.25"/>
</linearGradient>
</defs>
</svg>
